%FSLAX45Y45*%
G04 Gerber Fmt 4.5, Leading zero omitted, Abs format (unit mm)*
G04 Created by KiCad (PCBNEW (6.0.4)) date 2022-04-16 22:53:34*
%MOMM*%
%LPD*%
G01*
G04 APERTURE LIST*
%TA.AperFunction,Profile*%
%ADD10C,0.050000*%
%TD*%
%ADD11C,0.200000*%
%ADD12C,0.040000*%
%ADD13C,0.081280*%
%ADD14C,0.090000*%
%ADD15C,0.127000*%
%ADD16C,0.220000*%
G04 APERTURE END LIST*
D10*
X13150850Y-7772400D02*
X13150600Y-8954702D01*
X21999800Y-4776400D02*
X21999805Y-3043942D01*
X22371400Y-10805000D02*
G75*
G03*
X22644600Y-10745127I107000J165000D01*
G01*
X21999800Y-4776400D02*
G75*
G03*
X22203300Y-4969492I200000J7000D01*
G01*
X21956330Y-2975887D02*
G75*
G03*
X18206778Y-2150268I-4944280J-13527342D01*
G01*
X17812039Y-2150812D02*
G75*
G03*
X13289269Y-3826465I-25399J-6872998D01*
G01*
X23868800Y-5044200D02*
G75*
G03*
X23793800Y-4969200I-75000J0D01*
G01*
X13289300Y-3826500D02*
G75*
G03*
X13146605Y-4027870I244500J-324500D01*
G01*
X13150629Y-8954702D02*
G75*
G03*
X13354400Y-9138312I197801J14642D01*
G01*
X21999800Y-3043942D02*
G75*
G03*
X21956329Y-2975889I-75000J2D01*
G01*
X22371400Y-10805000D02*
G75*
G03*
X20218513Y-9886395I-4431600J-7404000D01*
G01*
X22203300Y-4969492D02*
X23793800Y-4969200D01*
X20218514Y-9886394D02*
G75*
G03*
X13354400Y-9138312I-6921914J-31647546D01*
G01*
X23868800Y-5842000D02*
X23868800Y-6654800D01*
X23695330Y-8885815D02*
X22644600Y-10745127D01*
X23695333Y-8885816D02*
G75*
G03*
X23870000Y-8153400I-1502723J745406D01*
G01*
X18206778Y-2150268D02*
X17812039Y-2150814D01*
X23868800Y-5044200D02*
X23868800Y-5842000D01*
X13146605Y-4027870D02*
X13157200Y-4876800D01*
X12934950Y-4876800D02*
X12896000Y-4876800D01*
X23868800Y-6654800D02*
X23868800Y-7543800D01*
X23868800Y-7543800D02*
X23870000Y-8153400D01*
X12934950Y-7264400D02*
X12896000Y-7264400D01*
X12934950Y-5384800D02*
X12896000Y-5384800D01*
X12934950Y-7772400D02*
X12896000Y-7772400D01*
X13157200Y-5384800D02*
X13157200Y-7264400D01*
X7841222Y-2150268D02*
X8261361Y-2150814D01*
X2179200Y-5044200D02*
X2179200Y-5842000D01*
X12896000Y-7772400D02*
X12897551Y-8954502D01*
X12901394Y-4027870D02*
G75*
G03*
X12758700Y-3826500I-387195J-123130D01*
G01*
X12693600Y-9138312D02*
G75*
G03*
X12897551Y-8954502I5950J198452D01*
G01*
X4048200Y-4776400D02*
X4048195Y-3043942D01*
X2179200Y-6654800D02*
X2179200Y-7391400D01*
X2352670Y-8885815D02*
X3403400Y-10745127D01*
X3844700Y-4969492D02*
G75*
G03*
X4048200Y-4776400I3500J200092D01*
G01*
X7841222Y-2150268D02*
G75*
G03*
X4091671Y-2975889I1194733J-14352958D01*
G01*
X12693600Y-9138312D02*
G75*
G03*
X5829487Y-9886395I57805J-32395641D01*
G01*
X2178000Y-8153400D02*
G75*
G03*
X2352670Y-8885815I1677385J12995D01*
G01*
X2254200Y-4969200D02*
G75*
G03*
X2179200Y-5044200I0J-75000D01*
G01*
X3844700Y-4969492D02*
X2254200Y-4969200D01*
X2179200Y-5842000D02*
X2179200Y-6654800D01*
X4091669Y-2975885D02*
G75*
G03*
X4048195Y-3043942I31531J-68055D01*
G01*
X3403400Y-10745127D02*
G75*
G03*
X3676600Y-10805000I166200J105127D01*
G01*
X12758699Y-3826501D02*
G75*
G03*
X8261361Y-2150814I-4497339J-5197309D01*
G01*
X5829487Y-9886395D02*
G75*
G03*
X3676600Y-10805000I2278713J-8322605D01*
G01*
X2179200Y-7391400D02*
X2178000Y-8153400D01*
X12896000Y-5384800D02*
X12896000Y-7264400D01*
X12901394Y-4027870D02*
X12896000Y-4876800D01*
X13157200Y-7264400D02*
X13125450Y-7264400D01*
X12934950Y-4876800D02*
G75*
G03*
X13125450Y-4876800I95250J38100D01*
G01*
X13125450Y-7772400D02*
G75*
G03*
X12934950Y-7772400I-95250J-38100D01*
G01*
X13125450Y-5384800D02*
G75*
G03*
X12934950Y-5384800I-95250J-38100D01*
G01*
X13157200Y-4876800D02*
X13125450Y-4876800D01*
X12934950Y-7264400D02*
G75*
G03*
X13125450Y-7264400I95250J38100D01*
G01*
X13150850Y-7772400D02*
X13125450Y-7772400D01*
X13157200Y-5384800D02*
X13125450Y-5384800D01*
D11*
D12*
X2672400Y-7396800D02*
X2712400Y-7436800D01*
X2712400Y-7396800D02*
X2672400Y-7436800D01*
X2926400Y-7473000D02*
X2966400Y-7513000D01*
X2966400Y-7473000D02*
X2926400Y-7513000D01*
X3078800Y-7828600D02*
X3118800Y-7868600D01*
X3118800Y-7828600D02*
X3078800Y-7868600D01*
X5212400Y-6330000D02*
X5252400Y-6370000D01*
X5252400Y-6330000D02*
X5212400Y-6370000D01*
X21722400Y-5263200D02*
X21762400Y-5303200D01*
X21762400Y-5263200D02*
X21722400Y-5303200D01*
X22128800Y-8311200D02*
X22168800Y-8351200D01*
X22168800Y-8311200D02*
X22128800Y-8351200D01*
X23123700Y-5512900D02*
X23163700Y-5552900D01*
X23163700Y-5512900D02*
X23123700Y-5552900D01*
X23348000Y-5822000D02*
X23388000Y-5862000D01*
X23388000Y-5822000D02*
X23348000Y-5862000D01*
X23475000Y-6126800D02*
X23515000Y-6166800D01*
X23515000Y-6126800D02*
X23475000Y-6166800D01*
D13*
X2312380Y-5308600D02*
G75*
G03*
X2312380Y-5308600I-40640J0D01*
G01*
X2312380Y-5562600D02*
G75*
G03*
X2312380Y-5562600I-40640J0D01*
G01*
X2312380Y-5816600D02*
G75*
G03*
X2312380Y-5816600I-40640J0D01*
G01*
X2312380Y-6070600D02*
G75*
G03*
X2312380Y-6070600I-40640J0D01*
G01*
X2312380Y-6324600D02*
G75*
G03*
X2312380Y-6324600I-40640J0D01*
G01*
X2312380Y-6578600D02*
G75*
G03*
X2312380Y-6578600I-40640J0D01*
G01*
X2312380Y-6832600D02*
G75*
G03*
X2312380Y-6832600I-40640J0D01*
G01*
X2312380Y-7086600D02*
G75*
G03*
X2312380Y-7086600I-40640J0D01*
G01*
X2312380Y-7340600D02*
G75*
G03*
X2312380Y-7340600I-40640J0D01*
G01*
X2312380Y-7594600D02*
G75*
G03*
X2312380Y-7594600I-40640J0D01*
G01*
X2312380Y-7848600D02*
G75*
G03*
X2312380Y-7848600I-40640J0D01*
G01*
X2312380Y-8102600D02*
G75*
G03*
X2312380Y-8102600I-40640J0D01*
G01*
X2504440Y-5080000D02*
G75*
G03*
X2504440Y-5080000I-40640J0D01*
G01*
X3647440Y-5080000D02*
G75*
G03*
X3647440Y-5080000I-40640J0D01*
G01*
X3834380Y-5308600D02*
G75*
G03*
X3834380Y-5308600I-40640J0D01*
G01*
X3834380Y-5562600D02*
G75*
G03*
X3834380Y-5562600I-40640J0D01*
G01*
X3834380Y-5816600D02*
G75*
G03*
X3834380Y-5816600I-40640J0D01*
G01*
X3834380Y-6070600D02*
G75*
G03*
X3834380Y-6070600I-40640J0D01*
G01*
X3834380Y-6324600D02*
G75*
G03*
X3834380Y-6324600I-40640J0D01*
G01*
X3834380Y-6578600D02*
G75*
G03*
X3834380Y-6578600I-40640J0D01*
G01*
X3834380Y-6832600D02*
G75*
G03*
X3834380Y-6832600I-40640J0D01*
G01*
X3834380Y-7086600D02*
G75*
G03*
X3834380Y-7086600I-40640J0D01*
G01*
X3834380Y-7340600D02*
G75*
G03*
X3834380Y-7340600I-40640J0D01*
G01*
X3834380Y-7594600D02*
G75*
G03*
X3834380Y-7594600I-40640J0D01*
G01*
X3834380Y-7848600D02*
G75*
G03*
X3834380Y-7848600I-40640J0D01*
G01*
X3834380Y-8102600D02*
G75*
G03*
X3834380Y-8102600I-40640J0D01*
G01*
X22297580Y-5308600D02*
G75*
G03*
X22297580Y-5308600I-40640J0D01*
G01*
X22297580Y-5562600D02*
G75*
G03*
X22297580Y-5562600I-40640J0D01*
G01*
X22297580Y-5816600D02*
G75*
G03*
X22297580Y-5816600I-40640J0D01*
G01*
X22297580Y-6070600D02*
G75*
G03*
X22297580Y-6070600I-40640J0D01*
G01*
X22297580Y-6324600D02*
G75*
G03*
X22297580Y-6324600I-40640J0D01*
G01*
X22297580Y-6578600D02*
G75*
G03*
X22297580Y-6578600I-40640J0D01*
G01*
X22297580Y-6832600D02*
G75*
G03*
X22297580Y-6832600I-40640J0D01*
G01*
X22297580Y-7086600D02*
G75*
G03*
X22297580Y-7086600I-40640J0D01*
G01*
X22297580Y-7340600D02*
G75*
G03*
X22297580Y-7340600I-40640J0D01*
G01*
X22297580Y-7594600D02*
G75*
G03*
X22297580Y-7594600I-40640J0D01*
G01*
X22297580Y-7848600D02*
G75*
G03*
X22297580Y-7848600I-40640J0D01*
G01*
X22297580Y-8102600D02*
G75*
G03*
X22297580Y-8102600I-40640J0D01*
G01*
X22468840Y-5080000D02*
G75*
G03*
X22468840Y-5080000I-40640J0D01*
G01*
X23637240Y-5080000D02*
G75*
G03*
X23637240Y-5080000I-40640J0D01*
G01*
X23819580Y-5308600D02*
G75*
G03*
X23819580Y-5308600I-40640J0D01*
G01*
X23819580Y-5562600D02*
G75*
G03*
X23819580Y-5562600I-40640J0D01*
G01*
X23819580Y-5816600D02*
G75*
G03*
X23819580Y-5816600I-40640J0D01*
G01*
X23819580Y-6070600D02*
G75*
G03*
X23819580Y-6070600I-40640J0D01*
G01*
X23819580Y-6324600D02*
G75*
G03*
X23819580Y-6324600I-40640J0D01*
G01*
X23819580Y-6578600D02*
G75*
G03*
X23819580Y-6578600I-40640J0D01*
G01*
X23819580Y-6832600D02*
G75*
G03*
X23819580Y-6832600I-40640J0D01*
G01*
X23819580Y-7086600D02*
G75*
G03*
X23819580Y-7086600I-40640J0D01*
G01*
X23819580Y-7340600D02*
G75*
G03*
X23819580Y-7340600I-40640J0D01*
G01*
X23819580Y-7594600D02*
G75*
G03*
X23819580Y-7594600I-40640J0D01*
G01*
X23819580Y-7848600D02*
G75*
G03*
X23819580Y-7848600I-40640J0D01*
G01*
X23819580Y-8102600D02*
G75*
G03*
X23819580Y-8102600I-40640J0D01*
G01*
D14*
X2707600Y-8330200D02*
X2707600Y-8420200D01*
X2662600Y-8375200D02*
X2752600Y-8375200D01*
D11*
X2687600Y-8410200D02*
X2727600Y-8410200D01*
X2687600Y-8340200D02*
X2727600Y-8340200D01*
X2727600Y-8410200D02*
G75*
G03*
X2727600Y-8340200I0J35000D01*
G01*
X2687600Y-8340200D02*
G75*
G03*
X2687600Y-8410200I0J-35000D01*
G01*
D14*
X3007600Y-8330200D02*
X3007600Y-8420200D01*
X2962600Y-8375200D02*
X3052600Y-8375200D01*
D11*
X2987600Y-8410200D02*
X3027600Y-8410200D01*
X2987600Y-8340200D02*
X3027600Y-8340200D01*
X3027600Y-8410200D02*
G75*
G03*
X3027600Y-8340200I0J35000D01*
G01*
X2987600Y-8340200D02*
G75*
G03*
X2987600Y-8410200I0J-35000D01*
G01*
D14*
X3407600Y-8330200D02*
X3407600Y-8420200D01*
X3362600Y-8375200D02*
X3452600Y-8375200D01*
D11*
X3387600Y-8410200D02*
X3427600Y-8410200D01*
X3387600Y-8340200D02*
X3427600Y-8340200D01*
X3427600Y-8410200D02*
G75*
G03*
X3427600Y-8340200I0J35000D01*
G01*
X3387600Y-8340200D02*
G75*
G03*
X3387600Y-8410200I0J-35000D01*
G01*
D14*
X3517600Y-8790200D02*
X3517600Y-8880200D01*
X3472600Y-8835200D02*
X3562600Y-8835200D01*
D11*
X3497600Y-8870200D02*
X3537600Y-8870200D01*
X3497600Y-8800200D02*
X3537600Y-8800200D01*
X3537600Y-8870200D02*
G75*
G03*
X3537600Y-8800200I0J35000D01*
G01*
X3497600Y-8800200D02*
G75*
G03*
X3497600Y-8870200I0J-35000D01*
G01*
D14*
X22517400Y-8330200D02*
X22517400Y-8420200D01*
X22472400Y-8375200D02*
X22562400Y-8375200D01*
D11*
X22537400Y-8340200D02*
X22497400Y-8340200D01*
X22537400Y-8410200D02*
X22497400Y-8410200D01*
X22497400Y-8340200D02*
G75*
G03*
X22497400Y-8410200I0J-35000D01*
G01*
X22537400Y-8410200D02*
G75*
G03*
X22537400Y-8340200I0J35000D01*
G01*
D14*
X22627400Y-8790200D02*
X22627400Y-8880200D01*
X22582400Y-8835200D02*
X22672400Y-8835200D01*
D11*
X22647400Y-8800200D02*
X22607400Y-8800200D01*
X22647400Y-8870200D02*
X22607400Y-8870200D01*
X22607400Y-8800200D02*
G75*
G03*
X22607400Y-8870200I0J-35000D01*
G01*
X22647400Y-8870200D02*
G75*
G03*
X22647400Y-8800200I0J35000D01*
G01*
D14*
X23027400Y-8790200D02*
X23027400Y-8880200D01*
X22982400Y-8835200D02*
X23072400Y-8835200D01*
D11*
X23047400Y-8800200D02*
X23007400Y-8800200D01*
X23047400Y-8870200D02*
X23007400Y-8870200D01*
X23007400Y-8800200D02*
G75*
G03*
X23007400Y-8870200I0J-35000D01*
G01*
X23047400Y-8870200D02*
G75*
G03*
X23047400Y-8800200I0J35000D01*
G01*
D14*
X23327400Y-8790200D02*
X23327400Y-8880200D01*
X23282400Y-8835200D02*
X23372400Y-8835200D01*
D11*
X23347400Y-8800200D02*
X23307400Y-8800200D01*
X23347400Y-8870200D02*
X23307400Y-8870200D01*
X23307400Y-8800200D02*
G75*
G03*
X23307400Y-8870200I0J-35000D01*
G01*
X23347400Y-8870200D02*
G75*
G03*
X23347400Y-8800200I0J35000D01*
G01*
D15*
X3571702Y-9342147D02*
X3571702Y-9252343D01*
X3481898Y-9252343D01*
X3481898Y-9342147D01*
X3571702Y-9342147D01*
X4109714Y-9274012D02*
X4109714Y-9184209D01*
X4019911Y-9184209D01*
X4019911Y-9274012D01*
X4109714Y-9274012D01*
X4413502Y-4263102D02*
X4413502Y-4173298D01*
X4323698Y-4173298D01*
X4323698Y-4263102D01*
X4413502Y-4263102D01*
X4413502Y-5962102D02*
X4413502Y-5872298D01*
X4323698Y-5872298D01*
X4323698Y-5962102D01*
X4413502Y-5962102D01*
X4413502Y-7663902D02*
X4413502Y-7574098D01*
X4323698Y-7574098D01*
X4323698Y-7663902D01*
X4413502Y-7663902D01*
X4913502Y-4473102D02*
X4913502Y-4383298D01*
X4823698Y-4383298D01*
X4823698Y-4473102D01*
X4913502Y-4473102D01*
X4913502Y-6172102D02*
X4913502Y-6082298D01*
X4823698Y-6082298D01*
X4823698Y-6172102D01*
X4913502Y-6172102D01*
X4913502Y-7873902D02*
X4913502Y-7784098D01*
X4823698Y-7784098D01*
X4823698Y-7873902D01*
X4913502Y-7873902D01*
X5569999Y-8483206D02*
X5569999Y-8393402D01*
X5480195Y-8393402D01*
X5480195Y-8483206D01*
X5569999Y-8483206D01*
X6107313Y-8556640D02*
X6107313Y-8466837D01*
X6017510Y-8466837D01*
X6017510Y-8556640D01*
X6107313Y-8556640D01*
X6214902Y-4013102D02*
X6214902Y-3923298D01*
X6125098Y-3923298D01*
X6125098Y-4013102D01*
X6214902Y-4013102D01*
X6214902Y-5708102D02*
X6214902Y-5618298D01*
X6125098Y-5618298D01*
X6125098Y-5708102D01*
X6214902Y-5708102D01*
X6214902Y-7409902D02*
X6214902Y-7320098D01*
X6125098Y-7320098D01*
X6125098Y-7409902D01*
X6214902Y-7409902D01*
X6714902Y-4223102D02*
X6714902Y-4133298D01*
X6625098Y-4133298D01*
X6625098Y-4223102D01*
X6714902Y-4223102D01*
X6714902Y-5918102D02*
X6714902Y-5828298D01*
X6625098Y-5828298D01*
X6625098Y-5918102D01*
X6714902Y-5918102D01*
X6714902Y-7619902D02*
X6714902Y-7530098D01*
X6625098Y-7530098D01*
X6625098Y-7619902D01*
X6714902Y-7619902D01*
X8013702Y-3463102D02*
X8013702Y-3373298D01*
X7923898Y-3373298D01*
X7923898Y-3463102D01*
X8013702Y-3463102D01*
X8013702Y-5174702D02*
X8013702Y-5084898D01*
X7923898Y-5084898D01*
X7923898Y-5174702D01*
X8013702Y-5174702D01*
X8013702Y-6876502D02*
X8013702Y-6786698D01*
X7923898Y-6786698D01*
X7923898Y-6876502D01*
X8013702Y-6876502D01*
X8513702Y-3673102D02*
X8513702Y-3583298D01*
X8423898Y-3583298D01*
X8423898Y-3673102D01*
X8513702Y-3673102D01*
X8513702Y-5384702D02*
X8513702Y-5294898D01*
X8423898Y-5294898D01*
X8423898Y-5384702D01*
X8513702Y-5384702D01*
X8513702Y-7086502D02*
X8513702Y-6996698D01*
X8423898Y-6996698D01*
X8423898Y-7086502D01*
X8513702Y-7086502D01*
X9816302Y-4163102D02*
X9816302Y-4073298D01*
X9726498Y-4073298D01*
X9726498Y-4163102D01*
X9816302Y-4163102D01*
X9816302Y-5860502D02*
X9816302Y-5770698D01*
X9726498Y-5770698D01*
X9726498Y-5860502D01*
X9816302Y-5860502D01*
X9816302Y-7562302D02*
X9816302Y-7472498D01*
X9726498Y-7472498D01*
X9726498Y-7562302D01*
X9816302Y-7562302D01*
X10316302Y-4373102D02*
X10316302Y-4283298D01*
X10226498Y-4283298D01*
X10226498Y-4373102D01*
X10316302Y-4373102D01*
X10316302Y-6070502D02*
X10316302Y-5980698D01*
X10226498Y-5980698D01*
X10226498Y-6070502D01*
X10316302Y-6070502D01*
X10316302Y-7772302D02*
X10316302Y-7682498D01*
X10226498Y-7682498D01*
X10226498Y-7772302D01*
X10316302Y-7772302D01*
X11618102Y-5363102D02*
X11618102Y-5273298D01*
X11528298Y-5273298D01*
X11528298Y-5363102D01*
X11618102Y-5363102D01*
X11618102Y-7063102D02*
X11618102Y-6973298D01*
X11528298Y-6973298D01*
X11528298Y-7063102D01*
X11618102Y-7063102D01*
X11618102Y-8763102D02*
X11618102Y-8673298D01*
X11528298Y-8673298D01*
X11528298Y-8763102D01*
X11618102Y-8763102D01*
X12118102Y-5573102D02*
X12118102Y-5483298D01*
X12028298Y-5483298D01*
X12028298Y-5573102D01*
X12118102Y-5573102D01*
X12118102Y-7273102D02*
X12118102Y-7183298D01*
X12028298Y-7183298D01*
X12028298Y-7273102D01*
X12118102Y-7273102D01*
X12118102Y-8973102D02*
X12118102Y-8883298D01*
X12028298Y-8883298D01*
X12028298Y-8973102D01*
X12118102Y-8973102D01*
X13530502Y-5363102D02*
X13530502Y-5273298D01*
X13440698Y-5273298D01*
X13440698Y-5363102D01*
X13530502Y-5363102D01*
X13530502Y-7063102D02*
X13530502Y-6973298D01*
X13440698Y-6973298D01*
X13440698Y-7063102D01*
X13530502Y-7063102D01*
X13530502Y-8763102D02*
X13530502Y-8673298D01*
X13440698Y-8673298D01*
X13440698Y-8763102D01*
X13530502Y-8763102D01*
X14030502Y-5573102D02*
X14030502Y-5483298D01*
X13940698Y-5483298D01*
X13940698Y-5573102D01*
X14030502Y-5573102D01*
X14030502Y-7273102D02*
X14030502Y-7183298D01*
X13940698Y-7183298D01*
X13940698Y-7273102D01*
X14030502Y-7273102D01*
X14030502Y-8973102D02*
X14030502Y-8883298D01*
X13940698Y-8883298D01*
X13940698Y-8973102D01*
X14030502Y-8973102D01*
X15330502Y-4163102D02*
X15330502Y-4073298D01*
X15240698Y-4073298D01*
X15240698Y-4163102D01*
X15330502Y-4163102D01*
X15330502Y-5860502D02*
X15330502Y-5770698D01*
X15240698Y-5770698D01*
X15240698Y-5860502D01*
X15330502Y-5860502D01*
X15330502Y-7562302D02*
X15330502Y-7472498D01*
X15240698Y-7472498D01*
X15240698Y-7562302D01*
X15330502Y-7562302D01*
X15830502Y-4373102D02*
X15830502Y-4283298D01*
X15740698Y-4283298D01*
X15740698Y-4373102D01*
X15830502Y-4373102D01*
X15830502Y-6070502D02*
X15830502Y-5980698D01*
X15740698Y-5980698D01*
X15740698Y-6070502D01*
X15830502Y-6070502D01*
X15830502Y-7772302D02*
X15830502Y-7682498D01*
X15740698Y-7682498D01*
X15740698Y-7772302D01*
X15830502Y-7772302D01*
X17130502Y-3463102D02*
X17130502Y-3373298D01*
X17040698Y-3373298D01*
X17040698Y-3463102D01*
X17130502Y-3463102D01*
X17130502Y-5174702D02*
X17130502Y-5084898D01*
X17040698Y-5084898D01*
X17040698Y-5174702D01*
X17130502Y-5174702D01*
X17130502Y-6876502D02*
X17130502Y-6786698D01*
X17040698Y-6786698D01*
X17040698Y-6876502D01*
X17130502Y-6876502D01*
X17630502Y-3673102D02*
X17630502Y-3583298D01*
X17540698Y-3583298D01*
X17540698Y-3673102D01*
X17630502Y-3673102D01*
X17630502Y-5384702D02*
X17630502Y-5294898D01*
X17540698Y-5294898D01*
X17540698Y-5384702D01*
X17630502Y-5384702D01*
X17630502Y-7086502D02*
X17630502Y-6996698D01*
X17540698Y-6996698D01*
X17540698Y-7086502D01*
X17630502Y-7086502D01*
X18930502Y-4013102D02*
X18930502Y-3923298D01*
X18840698Y-3923298D01*
X18840698Y-4013102D01*
X18930502Y-4013102D01*
X18930502Y-5708102D02*
X18930502Y-5618298D01*
X18840698Y-5618298D01*
X18840698Y-5708102D01*
X18930502Y-5708102D01*
X18930502Y-7409902D02*
X18930502Y-7320098D01*
X18840698Y-7320098D01*
X18840698Y-7409902D01*
X18930502Y-7409902D01*
X19430502Y-4223102D02*
X19430502Y-4133298D01*
X19340698Y-4133298D01*
X19340698Y-4223102D01*
X19430502Y-4223102D01*
X19430502Y-5918102D02*
X19430502Y-5828298D01*
X19340698Y-5828298D01*
X19340698Y-5918102D01*
X19430502Y-5918102D01*
X19430502Y-7619902D02*
X19430502Y-7530098D01*
X19340698Y-7530098D01*
X19340698Y-7619902D01*
X19430502Y-7619902D01*
X20580205Y-8483206D02*
X20580205Y-8393402D01*
X20490402Y-8393402D01*
X20490402Y-8483206D01*
X20580205Y-8483206D01*
X20728502Y-5962102D02*
X20728502Y-5872298D01*
X20638698Y-5872298D01*
X20638698Y-5962102D01*
X20728502Y-5962102D01*
X20728502Y-7663902D02*
X20728502Y-7574098D01*
X20638698Y-7574098D01*
X20638698Y-7663902D01*
X20728502Y-7663902D01*
X20730502Y-4263102D02*
X20730502Y-4173298D01*
X20640698Y-4173298D01*
X20640698Y-4263102D01*
X20730502Y-4263102D01*
X21008816Y-8815459D02*
X21008816Y-8725656D01*
X20919013Y-8725656D01*
X20919013Y-8815459D01*
X21008816Y-8815459D01*
X21228502Y-6172102D02*
X21228502Y-6082298D01*
X21138698Y-6082298D01*
X21138698Y-6172102D01*
X21228502Y-6172102D01*
X21228502Y-7873902D02*
X21228502Y-7784098D01*
X21138698Y-7784098D01*
X21138698Y-7873902D01*
X21228502Y-7873902D01*
X21230502Y-4473102D02*
X21230502Y-4383298D01*
X21140698Y-4383298D01*
X21140698Y-4473102D01*
X21230502Y-4473102D01*
X22578502Y-9342147D02*
X22578502Y-9252343D01*
X22488698Y-9252343D01*
X22488698Y-9342147D01*
X22578502Y-9342147D01*
X22906514Y-9774012D02*
X22906514Y-9684209D01*
X22816711Y-9684209D01*
X22816711Y-9774012D01*
X22906514Y-9774012D01*
D16*
X5664200Y-4738200D02*
X5774200Y-4628200D01*
X5664200Y-4518200D01*
X5554200Y-4628200D01*
X5664200Y-4738200D01*
X7569200Y-2833200D02*
X7679200Y-2723200D01*
X7569200Y-2613200D01*
X7459200Y-2723200D01*
X7569200Y-2833200D01*
X7569200Y-6643200D02*
X7679200Y-6533200D01*
X7569200Y-6423200D01*
X7459200Y-6533200D01*
X7569200Y-6643200D01*
X9474200Y-4738200D02*
X9584200Y-4628200D01*
X9474200Y-4518200D01*
X9364200Y-4628200D01*
X9474200Y-4738200D01*
X16630600Y-4738200D02*
X16740600Y-4628200D01*
X16630600Y-4518200D01*
X16520600Y-4628200D01*
X16630600Y-4738200D01*
X18535600Y-2833200D02*
X18645600Y-2723200D01*
X18535600Y-2613200D01*
X18425600Y-2723200D01*
X18535600Y-2833200D01*
X18535600Y-6643200D02*
X18645600Y-6533200D01*
X18535600Y-6423200D01*
X18425600Y-6533200D01*
X18535600Y-6643200D01*
X20440600Y-4738200D02*
X20550600Y-4628200D01*
X20440600Y-4518200D01*
X20330600Y-4628200D01*
X20440600Y-4738200D01*
D11*
X2433119Y-11149633D02*
X2433119Y-10949633D01*
X2480738Y-10949633D01*
X2509310Y-10959157D01*
X2528357Y-10978205D01*
X2537881Y-10997252D01*
X2547405Y-11035348D01*
X2547405Y-11063919D01*
X2537881Y-11102014D01*
X2528357Y-11121062D01*
X2509310Y-11140109D01*
X2480738Y-11149633D01*
X2433119Y-11149633D01*
X2633119Y-11149633D02*
X2633119Y-11016300D01*
X2633119Y-11054395D02*
X2642643Y-11035348D01*
X2652167Y-11025824D01*
X2671214Y-11016300D01*
X2690262Y-11016300D01*
X2756929Y-11149633D02*
X2756929Y-11016300D01*
X2756929Y-10949633D02*
X2747405Y-10959157D01*
X2756929Y-10968681D01*
X2766452Y-10959157D01*
X2756929Y-10949633D01*
X2756929Y-10968681D01*
X2880738Y-11149633D02*
X2861690Y-11140109D01*
X2852167Y-11121062D01*
X2852167Y-10949633D01*
X2985500Y-11149633D02*
X2966452Y-11140109D01*
X2956928Y-11121062D01*
X2956928Y-10949633D01*
X3214071Y-11149633D02*
X3214071Y-10949633D01*
X3280738Y-11092490D01*
X3347405Y-10949633D01*
X3347405Y-11149633D01*
X3528357Y-11149633D02*
X3528357Y-11044871D01*
X3518833Y-11025824D01*
X3499786Y-11016300D01*
X3461690Y-11016300D01*
X3442643Y-11025824D01*
X3528357Y-11140109D02*
X3509309Y-11149633D01*
X3461690Y-11149633D01*
X3442643Y-11140109D01*
X3433119Y-11121062D01*
X3433119Y-11102014D01*
X3442643Y-11082967D01*
X3461690Y-11073443D01*
X3509309Y-11073443D01*
X3528357Y-11063919D01*
X3623595Y-11016300D02*
X3623595Y-11216300D01*
X3623595Y-11025824D02*
X3642643Y-11016300D01*
X3680738Y-11016300D01*
X3699786Y-11025824D01*
X3709309Y-11035348D01*
X3718833Y-11054395D01*
X3718833Y-11111538D01*
X3709309Y-11130586D01*
X3699786Y-11140109D01*
X3680738Y-11149633D01*
X3642643Y-11149633D01*
X3623595Y-11140109D01*
X3804548Y-11130586D02*
X3814071Y-11140109D01*
X3804548Y-11149633D01*
X3795024Y-11140109D01*
X3804548Y-11130586D01*
X3804548Y-11149633D01*
X3804548Y-11025824D02*
X3814071Y-11035348D01*
X3804548Y-11044871D01*
X3795024Y-11035348D01*
X3804548Y-11025824D01*
X3804548Y-11044871D01*
D12*
X2135500Y-11459157D02*
X2175500Y-11499157D01*
X2175500Y-11459157D02*
X2135500Y-11499157D01*
D11*
X2471214Y-11369633D02*
X2490262Y-11369633D01*
X2509310Y-11379157D01*
X2518833Y-11388681D01*
X2528357Y-11407728D01*
X2537881Y-11445824D01*
X2537881Y-11493443D01*
X2528357Y-11531538D01*
X2518833Y-11550586D01*
X2509310Y-11560109D01*
X2490262Y-11569633D01*
X2471214Y-11569633D01*
X2452167Y-11560109D01*
X2442643Y-11550586D01*
X2433119Y-11531538D01*
X2423595Y-11493443D01*
X2423595Y-11445824D01*
X2433119Y-11407728D01*
X2442643Y-11388681D01*
X2452167Y-11379157D01*
X2471214Y-11369633D01*
X2623595Y-11550586D02*
X2633119Y-11560109D01*
X2623595Y-11569633D01*
X2614071Y-11560109D01*
X2623595Y-11550586D01*
X2623595Y-11569633D01*
X2804548Y-11436300D02*
X2804548Y-11569633D01*
X2756929Y-11360109D02*
X2709310Y-11502967D01*
X2833119Y-11502967D01*
X2947405Y-11369633D02*
X2966452Y-11369633D01*
X2985500Y-11379157D01*
X2995024Y-11388681D01*
X3004548Y-11407728D01*
X3014071Y-11445824D01*
X3014071Y-11493443D01*
X3004548Y-11531538D01*
X2995024Y-11550586D01*
X2985500Y-11560109D01*
X2966452Y-11569633D01*
X2947405Y-11569633D01*
X2928357Y-11560109D01*
X2918833Y-11550586D01*
X2909309Y-11531538D01*
X2899786Y-11493443D01*
X2899786Y-11445824D01*
X2909309Y-11407728D01*
X2918833Y-11388681D01*
X2928357Y-11379157D01*
X2947405Y-11369633D01*
X3137881Y-11369633D02*
X3156928Y-11369633D01*
X3175976Y-11379157D01*
X3185500Y-11388681D01*
X3195024Y-11407728D01*
X3204548Y-11445824D01*
X3204548Y-11493443D01*
X3195024Y-11531538D01*
X3185500Y-11550586D01*
X3175976Y-11560109D01*
X3156928Y-11569633D01*
X3137881Y-11569633D01*
X3118833Y-11560109D01*
X3109309Y-11550586D01*
X3099786Y-11531538D01*
X3090262Y-11493443D01*
X3090262Y-11445824D01*
X3099786Y-11407728D01*
X3109309Y-11388681D01*
X3118833Y-11379157D01*
X3137881Y-11369633D01*
X3290262Y-11569633D02*
X3290262Y-11436300D01*
X3290262Y-11455347D02*
X3299786Y-11445824D01*
X3318833Y-11436300D01*
X3347405Y-11436300D01*
X3366452Y-11445824D01*
X3375976Y-11464871D01*
X3375976Y-11569633D01*
X3375976Y-11464871D02*
X3385500Y-11445824D01*
X3404548Y-11436300D01*
X3433119Y-11436300D01*
X3452167Y-11445824D01*
X3461690Y-11464871D01*
X3461690Y-11569633D01*
X3556928Y-11569633D02*
X3556928Y-11436300D01*
X3556928Y-11455347D02*
X3566452Y-11445824D01*
X3585500Y-11436300D01*
X3614071Y-11436300D01*
X3633119Y-11445824D01*
X3642643Y-11464871D01*
X3642643Y-11569633D01*
X3642643Y-11464871D02*
X3652167Y-11445824D01*
X3671214Y-11436300D01*
X3699786Y-11436300D01*
X3718833Y-11445824D01*
X3728357Y-11464871D01*
X3728357Y-11569633D01*
X4118833Y-11360109D02*
X3947405Y-11617252D01*
X4375976Y-11369633D02*
X4395024Y-11369633D01*
X4414071Y-11379157D01*
X4423595Y-11388681D01*
X4433119Y-11407728D01*
X4442643Y-11445824D01*
X4442643Y-11493443D01*
X4433119Y-11531538D01*
X4423595Y-11550586D01*
X4414071Y-11560109D01*
X4395024Y-11569633D01*
X4375976Y-11569633D01*
X4356929Y-11560109D01*
X4347405Y-11550586D01*
X4337881Y-11531538D01*
X4328357Y-11493443D01*
X4328357Y-11445824D01*
X4337881Y-11407728D01*
X4347405Y-11388681D01*
X4356929Y-11379157D01*
X4375976Y-11369633D01*
X4528357Y-11550586D02*
X4537881Y-11560109D01*
X4528357Y-11569633D01*
X4518833Y-11560109D01*
X4528357Y-11550586D01*
X4528357Y-11569633D01*
X4661690Y-11369633D02*
X4680738Y-11369633D01*
X4699786Y-11379157D01*
X4709310Y-11388681D01*
X4718833Y-11407728D01*
X4728357Y-11445824D01*
X4728357Y-11493443D01*
X4718833Y-11531538D01*
X4709310Y-11550586D01*
X4699786Y-11560109D01*
X4680738Y-11569633D01*
X4661690Y-11569633D01*
X4642643Y-11560109D01*
X4633119Y-11550586D01*
X4623595Y-11531538D01*
X4614071Y-11493443D01*
X4614071Y-11445824D01*
X4623595Y-11407728D01*
X4633119Y-11388681D01*
X4642643Y-11379157D01*
X4661690Y-11369633D01*
X4918833Y-11569633D02*
X4804548Y-11569633D01*
X4861690Y-11569633D02*
X4861690Y-11369633D01*
X4842643Y-11398205D01*
X4823595Y-11417252D01*
X4804548Y-11426776D01*
X5099786Y-11369633D02*
X5004548Y-11369633D01*
X4995024Y-11464871D01*
X5004548Y-11455347D01*
X5023595Y-11445824D01*
X5071214Y-11445824D01*
X5090262Y-11455347D01*
X5099786Y-11464871D01*
X5109310Y-11483919D01*
X5109310Y-11531538D01*
X5099786Y-11550586D01*
X5090262Y-11560109D01*
X5071214Y-11569633D01*
X5023595Y-11569633D01*
X5004548Y-11560109D01*
X4995024Y-11550586D01*
X5175976Y-11369633D02*
X5309310Y-11369633D01*
X5223595Y-11569633D01*
X5375976Y-11369633D02*
X5375976Y-11407728D01*
X5452167Y-11369633D02*
X5452167Y-11407728D01*
X5747405Y-11645824D02*
X5737881Y-11636300D01*
X5718833Y-11607728D01*
X5709309Y-11588681D01*
X5699786Y-11560109D01*
X5690262Y-11512490D01*
X5690262Y-11474395D01*
X5699786Y-11426776D01*
X5709309Y-11398205D01*
X5718833Y-11379157D01*
X5737881Y-11350586D01*
X5747405Y-11341062D01*
X5833119Y-11569633D02*
X5871214Y-11569633D01*
X5890262Y-11560109D01*
X5899786Y-11550586D01*
X5918833Y-11522014D01*
X5928357Y-11483919D01*
X5928357Y-11407728D01*
X5918833Y-11388681D01*
X5909309Y-11379157D01*
X5890262Y-11369633D01*
X5852167Y-11369633D01*
X5833119Y-11379157D01*
X5823595Y-11388681D01*
X5814071Y-11407728D01*
X5814071Y-11455347D01*
X5823595Y-11474395D01*
X5833119Y-11483919D01*
X5852167Y-11493443D01*
X5890262Y-11493443D01*
X5909309Y-11483919D01*
X5918833Y-11474395D01*
X5928357Y-11455347D01*
X6166452Y-11569633D02*
X6166452Y-11369633D01*
X6252167Y-11569633D02*
X6252167Y-11464871D01*
X6242643Y-11445824D01*
X6223595Y-11436300D01*
X6195024Y-11436300D01*
X6175976Y-11445824D01*
X6166452Y-11455347D01*
X6375976Y-11569633D02*
X6356928Y-11560109D01*
X6347405Y-11550586D01*
X6337881Y-11531538D01*
X6337881Y-11474395D01*
X6347405Y-11455347D01*
X6356928Y-11445824D01*
X6375976Y-11436300D01*
X6404548Y-11436300D01*
X6423595Y-11445824D01*
X6433119Y-11455347D01*
X6442643Y-11474395D01*
X6442643Y-11531538D01*
X6433119Y-11550586D01*
X6423595Y-11560109D01*
X6404548Y-11569633D01*
X6375976Y-11569633D01*
X6556928Y-11569633D02*
X6537881Y-11560109D01*
X6528357Y-11541062D01*
X6528357Y-11369633D01*
X6709309Y-11560109D02*
X6690262Y-11569633D01*
X6652167Y-11569633D01*
X6633119Y-11560109D01*
X6623595Y-11541062D01*
X6623595Y-11464871D01*
X6633119Y-11445824D01*
X6652167Y-11436300D01*
X6690262Y-11436300D01*
X6709309Y-11445824D01*
X6718833Y-11464871D01*
X6718833Y-11483919D01*
X6623595Y-11502967D01*
X6795024Y-11560109D02*
X6814071Y-11569633D01*
X6852167Y-11569633D01*
X6871214Y-11560109D01*
X6880738Y-11541062D01*
X6880738Y-11531538D01*
X6871214Y-11512490D01*
X6852167Y-11502967D01*
X6823595Y-11502967D01*
X6804548Y-11493443D01*
X6795024Y-11474395D01*
X6795024Y-11464871D01*
X6804548Y-11445824D01*
X6823595Y-11436300D01*
X6852167Y-11436300D01*
X6871214Y-11445824D01*
X6947405Y-11645824D02*
X6956928Y-11636300D01*
X6975976Y-11607728D01*
X6985500Y-11588681D01*
X6995024Y-11560109D01*
X7004548Y-11512490D01*
X7004548Y-11474395D01*
X6995024Y-11426776D01*
X6985500Y-11398205D01*
X6975976Y-11379157D01*
X6956928Y-11350586D01*
X6947405Y-11341062D01*
D13*
X2175500Y-11743157D02*
G75*
G03*
X2175500Y-11743157I-40640J0D01*
G01*
D11*
X2471214Y-11633633D02*
X2490262Y-11633633D01*
X2509310Y-11643157D01*
X2518833Y-11652681D01*
X2528357Y-11671728D01*
X2537881Y-11709824D01*
X2537881Y-11757443D01*
X2528357Y-11795538D01*
X2518833Y-11814586D01*
X2509310Y-11824109D01*
X2490262Y-11833633D01*
X2471214Y-11833633D01*
X2452167Y-11824109D01*
X2442643Y-11814586D01*
X2433119Y-11795538D01*
X2423595Y-11757443D01*
X2423595Y-11709824D01*
X2433119Y-11671728D01*
X2442643Y-11652681D01*
X2452167Y-11643157D01*
X2471214Y-11633633D01*
X2623595Y-11814586D02*
X2633119Y-11824109D01*
X2623595Y-11833633D01*
X2614071Y-11824109D01*
X2623595Y-11814586D01*
X2623595Y-11833633D01*
X2747405Y-11719347D02*
X2728357Y-11709824D01*
X2718833Y-11700300D01*
X2709310Y-11681252D01*
X2709310Y-11671728D01*
X2718833Y-11652681D01*
X2728357Y-11643157D01*
X2747405Y-11633633D01*
X2785500Y-11633633D01*
X2804548Y-11643157D01*
X2814071Y-11652681D01*
X2823595Y-11671728D01*
X2823595Y-11681252D01*
X2814071Y-11700300D01*
X2804548Y-11709824D01*
X2785500Y-11719347D01*
X2747405Y-11719347D01*
X2728357Y-11728871D01*
X2718833Y-11738395D01*
X2709310Y-11757443D01*
X2709310Y-11795538D01*
X2718833Y-11814586D01*
X2728357Y-11824109D01*
X2747405Y-11833633D01*
X2785500Y-11833633D01*
X2804548Y-11824109D01*
X2814071Y-11814586D01*
X2823595Y-11795538D01*
X2823595Y-11757443D01*
X2814071Y-11738395D01*
X2804548Y-11728871D01*
X2785500Y-11719347D01*
X3014071Y-11833633D02*
X2899786Y-11833633D01*
X2956928Y-11833633D02*
X2956928Y-11633633D01*
X2937881Y-11662205D01*
X2918833Y-11681252D01*
X2899786Y-11690776D01*
X3080738Y-11633633D02*
X3204548Y-11633633D01*
X3137881Y-11709824D01*
X3166452Y-11709824D01*
X3185500Y-11719347D01*
X3195024Y-11728871D01*
X3204548Y-11747919D01*
X3204548Y-11795538D01*
X3195024Y-11814586D01*
X3185500Y-11824109D01*
X3166452Y-11833633D01*
X3109309Y-11833633D01*
X3090262Y-11824109D01*
X3080738Y-11814586D01*
X3290262Y-11833633D02*
X3290262Y-11700300D01*
X3290262Y-11719347D02*
X3299786Y-11709824D01*
X3318833Y-11700300D01*
X3347405Y-11700300D01*
X3366452Y-11709824D01*
X3375976Y-11728871D01*
X3375976Y-11833633D01*
X3375976Y-11728871D02*
X3385500Y-11709824D01*
X3404548Y-11700300D01*
X3433119Y-11700300D01*
X3452167Y-11709824D01*
X3461690Y-11728871D01*
X3461690Y-11833633D01*
X3556928Y-11833633D02*
X3556928Y-11700300D01*
X3556928Y-11719347D02*
X3566452Y-11709824D01*
X3585500Y-11700300D01*
X3614071Y-11700300D01*
X3633119Y-11709824D01*
X3642643Y-11728871D01*
X3642643Y-11833633D01*
X3642643Y-11728871D02*
X3652167Y-11709824D01*
X3671214Y-11700300D01*
X3699786Y-11700300D01*
X3718833Y-11709824D01*
X3728357Y-11728871D01*
X3728357Y-11833633D01*
X4118833Y-11624109D02*
X3947405Y-11881252D01*
X4375976Y-11633633D02*
X4395024Y-11633633D01*
X4414071Y-11643157D01*
X4423595Y-11652681D01*
X4433119Y-11671728D01*
X4442643Y-11709824D01*
X4442643Y-11757443D01*
X4433119Y-11795538D01*
X4423595Y-11814586D01*
X4414071Y-11824109D01*
X4395024Y-11833633D01*
X4375976Y-11833633D01*
X4356929Y-11824109D01*
X4347405Y-11814586D01*
X4337881Y-11795538D01*
X4328357Y-11757443D01*
X4328357Y-11709824D01*
X4337881Y-11671728D01*
X4347405Y-11652681D01*
X4356929Y-11643157D01*
X4375976Y-11633633D01*
X4528357Y-11814586D02*
X4537881Y-11824109D01*
X4528357Y-11833633D01*
X4518833Y-11824109D01*
X4528357Y-11814586D01*
X4528357Y-11833633D01*
X4661690Y-11633633D02*
X4680738Y-11633633D01*
X4699786Y-11643157D01*
X4709310Y-11652681D01*
X4718833Y-11671728D01*
X4728357Y-11709824D01*
X4728357Y-11757443D01*
X4718833Y-11795538D01*
X4709310Y-11814586D01*
X4699786Y-11824109D01*
X4680738Y-11833633D01*
X4661690Y-11833633D01*
X4642643Y-11824109D01*
X4633119Y-11814586D01*
X4623595Y-11795538D01*
X4614071Y-11757443D01*
X4614071Y-11709824D01*
X4623595Y-11671728D01*
X4633119Y-11652681D01*
X4642643Y-11643157D01*
X4661690Y-11633633D01*
X4795024Y-11633633D02*
X4918833Y-11633633D01*
X4852167Y-11709824D01*
X4880738Y-11709824D01*
X4899786Y-11719347D01*
X4909310Y-11728871D01*
X4918833Y-11747919D01*
X4918833Y-11795538D01*
X4909310Y-11814586D01*
X4899786Y-11824109D01*
X4880738Y-11833633D01*
X4823595Y-11833633D01*
X4804548Y-11824109D01*
X4795024Y-11814586D01*
X4995024Y-11652681D02*
X5004548Y-11643157D01*
X5023595Y-11633633D01*
X5071214Y-11633633D01*
X5090262Y-11643157D01*
X5099786Y-11652681D01*
X5109310Y-11671728D01*
X5109310Y-11690776D01*
X5099786Y-11719347D01*
X4985500Y-11833633D01*
X5109310Y-11833633D01*
X5233119Y-11633633D02*
X5252167Y-11633633D01*
X5271214Y-11643157D01*
X5280738Y-11652681D01*
X5290262Y-11671728D01*
X5299786Y-11709824D01*
X5299786Y-11757443D01*
X5290262Y-11795538D01*
X5280738Y-11814586D01*
X5271214Y-11824109D01*
X5252167Y-11833633D01*
X5233119Y-11833633D01*
X5214071Y-11824109D01*
X5204548Y-11814586D01*
X5195024Y-11795538D01*
X5185500Y-11757443D01*
X5185500Y-11709824D01*
X5195024Y-11671728D01*
X5204548Y-11652681D01*
X5214071Y-11643157D01*
X5233119Y-11633633D01*
X5375976Y-11633633D02*
X5375976Y-11671728D01*
X5452167Y-11633633D02*
X5452167Y-11671728D01*
X5747405Y-11909824D02*
X5737881Y-11900300D01*
X5718833Y-11871728D01*
X5709309Y-11852681D01*
X5699786Y-11824109D01*
X5690262Y-11776490D01*
X5690262Y-11738395D01*
X5699786Y-11690776D01*
X5709309Y-11662205D01*
X5718833Y-11643157D01*
X5737881Y-11614586D01*
X5747405Y-11605062D01*
X5918833Y-11633633D02*
X5823595Y-11633633D01*
X5814071Y-11728871D01*
X5823595Y-11719347D01*
X5842643Y-11709824D01*
X5890262Y-11709824D01*
X5909309Y-11719347D01*
X5918833Y-11728871D01*
X5928357Y-11747919D01*
X5928357Y-11795538D01*
X5918833Y-11814586D01*
X5909309Y-11824109D01*
X5890262Y-11833633D01*
X5842643Y-11833633D01*
X5823595Y-11824109D01*
X5814071Y-11814586D01*
X6004548Y-11652681D02*
X6014071Y-11643157D01*
X6033119Y-11633633D01*
X6080738Y-11633633D01*
X6099786Y-11643157D01*
X6109309Y-11652681D01*
X6118833Y-11671728D01*
X6118833Y-11690776D01*
X6109309Y-11719347D01*
X5995024Y-11833633D01*
X6118833Y-11833633D01*
X6356928Y-11833633D02*
X6356928Y-11633633D01*
X6442643Y-11833633D02*
X6442643Y-11728871D01*
X6433119Y-11709824D01*
X6414071Y-11700300D01*
X6385500Y-11700300D01*
X6366452Y-11709824D01*
X6356928Y-11719347D01*
X6566452Y-11833633D02*
X6547405Y-11824109D01*
X6537881Y-11814586D01*
X6528357Y-11795538D01*
X6528357Y-11738395D01*
X6537881Y-11719347D01*
X6547405Y-11709824D01*
X6566452Y-11700300D01*
X6595024Y-11700300D01*
X6614071Y-11709824D01*
X6623595Y-11719347D01*
X6633119Y-11738395D01*
X6633119Y-11795538D01*
X6623595Y-11814586D01*
X6614071Y-11824109D01*
X6595024Y-11833633D01*
X6566452Y-11833633D01*
X6747405Y-11833633D02*
X6728357Y-11824109D01*
X6718833Y-11805062D01*
X6718833Y-11633633D01*
X6899786Y-11824109D02*
X6880738Y-11833633D01*
X6842643Y-11833633D01*
X6823595Y-11824109D01*
X6814071Y-11805062D01*
X6814071Y-11728871D01*
X6823595Y-11709824D01*
X6842643Y-11700300D01*
X6880738Y-11700300D01*
X6899786Y-11709824D01*
X6909309Y-11728871D01*
X6909309Y-11747919D01*
X6814071Y-11766967D01*
X6985500Y-11824109D02*
X7004548Y-11833633D01*
X7042643Y-11833633D01*
X7061690Y-11824109D01*
X7071214Y-11805062D01*
X7071214Y-11795538D01*
X7061690Y-11776490D01*
X7042643Y-11766967D01*
X7014071Y-11766967D01*
X6995024Y-11757443D01*
X6985500Y-11738395D01*
X6985500Y-11728871D01*
X6995024Y-11709824D01*
X7014071Y-11700300D01*
X7042643Y-11700300D01*
X7061690Y-11709824D01*
X7137881Y-11909824D02*
X7147405Y-11900300D01*
X7166452Y-11871728D01*
X7175976Y-11852681D01*
X7185500Y-11824109D01*
X7195024Y-11776490D01*
X7195024Y-11738395D01*
X7185500Y-11690776D01*
X7175976Y-11662205D01*
X7166452Y-11643157D01*
X7147405Y-11614586D01*
X7137881Y-11605062D01*
D14*
X2130500Y-11962157D02*
X2130500Y-12052157D01*
X2085500Y-12007157D02*
X2175500Y-12007157D01*
D11*
X2471214Y-11897633D02*
X2490262Y-11897633D01*
X2509310Y-11907157D01*
X2518833Y-11916681D01*
X2528357Y-11935728D01*
X2537881Y-11973824D01*
X2537881Y-12021443D01*
X2528357Y-12059538D01*
X2518833Y-12078586D01*
X2509310Y-12088109D01*
X2490262Y-12097633D01*
X2471214Y-12097633D01*
X2452167Y-12088109D01*
X2442643Y-12078586D01*
X2433119Y-12059538D01*
X2423595Y-12021443D01*
X2423595Y-11973824D01*
X2433119Y-11935728D01*
X2442643Y-11916681D01*
X2452167Y-11907157D01*
X2471214Y-11897633D01*
X2623595Y-12078586D02*
X2633119Y-12088109D01*
X2623595Y-12097633D01*
X2614071Y-12088109D01*
X2623595Y-12078586D01*
X2623595Y-12097633D01*
X2728357Y-12097633D02*
X2766452Y-12097633D01*
X2785500Y-12088109D01*
X2795024Y-12078586D01*
X2814071Y-12050014D01*
X2823595Y-12011919D01*
X2823595Y-11935728D01*
X2814071Y-11916681D01*
X2804548Y-11907157D01*
X2785500Y-11897633D01*
X2747405Y-11897633D01*
X2728357Y-11907157D01*
X2718833Y-11916681D01*
X2709310Y-11935728D01*
X2709310Y-11983347D01*
X2718833Y-12002395D01*
X2728357Y-12011919D01*
X2747405Y-12021443D01*
X2785500Y-12021443D01*
X2804548Y-12011919D01*
X2814071Y-12002395D01*
X2823595Y-11983347D01*
X2947405Y-11897633D02*
X2966452Y-11897633D01*
X2985500Y-11907157D01*
X2995024Y-11916681D01*
X3004548Y-11935728D01*
X3014071Y-11973824D01*
X3014071Y-12021443D01*
X3004548Y-12059538D01*
X2995024Y-12078586D01*
X2985500Y-12088109D01*
X2966452Y-12097633D01*
X2947405Y-12097633D01*
X2928357Y-12088109D01*
X2918833Y-12078586D01*
X2909309Y-12059538D01*
X2899786Y-12021443D01*
X2899786Y-11973824D01*
X2909309Y-11935728D01*
X2918833Y-11916681D01*
X2928357Y-11907157D01*
X2947405Y-11897633D01*
X3137881Y-11897633D02*
X3156928Y-11897633D01*
X3175976Y-11907157D01*
X3185500Y-11916681D01*
X3195024Y-11935728D01*
X3204548Y-11973824D01*
X3204548Y-12021443D01*
X3195024Y-12059538D01*
X3185500Y-12078586D01*
X3175976Y-12088109D01*
X3156928Y-12097633D01*
X3137881Y-12097633D01*
X3118833Y-12088109D01*
X3109309Y-12078586D01*
X3099786Y-12059538D01*
X3090262Y-12021443D01*
X3090262Y-11973824D01*
X3099786Y-11935728D01*
X3109309Y-11916681D01*
X3118833Y-11907157D01*
X3137881Y-11897633D01*
X3290262Y-12097633D02*
X3290262Y-11964300D01*
X3290262Y-11983347D02*
X3299786Y-11973824D01*
X3318833Y-11964300D01*
X3347405Y-11964300D01*
X3366452Y-11973824D01*
X3375976Y-11992871D01*
X3375976Y-12097633D01*
X3375976Y-11992871D02*
X3385500Y-11973824D01*
X3404548Y-11964300D01*
X3433119Y-11964300D01*
X3452167Y-11973824D01*
X3461690Y-11992871D01*
X3461690Y-12097633D01*
X3556928Y-12097633D02*
X3556928Y-11964300D01*
X3556928Y-11983347D02*
X3566452Y-11973824D01*
X3585500Y-11964300D01*
X3614071Y-11964300D01*
X3633119Y-11973824D01*
X3642643Y-11992871D01*
X3642643Y-12097633D01*
X3642643Y-11992871D02*
X3652167Y-11973824D01*
X3671214Y-11964300D01*
X3699786Y-11964300D01*
X3718833Y-11973824D01*
X3728357Y-11992871D01*
X3728357Y-12097633D01*
X4118833Y-11888109D02*
X3947405Y-12145252D01*
X4375976Y-11897633D02*
X4395024Y-11897633D01*
X4414071Y-11907157D01*
X4423595Y-11916681D01*
X4433119Y-11935728D01*
X4442643Y-11973824D01*
X4442643Y-12021443D01*
X4433119Y-12059538D01*
X4423595Y-12078586D01*
X4414071Y-12088109D01*
X4395024Y-12097633D01*
X4375976Y-12097633D01*
X4356929Y-12088109D01*
X4347405Y-12078586D01*
X4337881Y-12059538D01*
X4328357Y-12021443D01*
X4328357Y-11973824D01*
X4337881Y-11935728D01*
X4347405Y-11916681D01*
X4356929Y-11907157D01*
X4375976Y-11897633D01*
X4528357Y-12078586D02*
X4537881Y-12088109D01*
X4528357Y-12097633D01*
X4518833Y-12088109D01*
X4528357Y-12078586D01*
X4528357Y-12097633D01*
X4661690Y-11897633D02*
X4680738Y-11897633D01*
X4699786Y-11907157D01*
X4709310Y-11916681D01*
X4718833Y-11935728D01*
X4728357Y-11973824D01*
X4728357Y-12021443D01*
X4718833Y-12059538D01*
X4709310Y-12078586D01*
X4699786Y-12088109D01*
X4680738Y-12097633D01*
X4661690Y-12097633D01*
X4642643Y-12088109D01*
X4633119Y-12078586D01*
X4623595Y-12059538D01*
X4614071Y-12021443D01*
X4614071Y-11973824D01*
X4623595Y-11935728D01*
X4633119Y-11916681D01*
X4642643Y-11907157D01*
X4661690Y-11897633D01*
X4795024Y-11897633D02*
X4918833Y-11897633D01*
X4852167Y-11973824D01*
X4880738Y-11973824D01*
X4899786Y-11983347D01*
X4909310Y-11992871D01*
X4918833Y-12011919D01*
X4918833Y-12059538D01*
X4909310Y-12078586D01*
X4899786Y-12088109D01*
X4880738Y-12097633D01*
X4823595Y-12097633D01*
X4804548Y-12088109D01*
X4795024Y-12078586D01*
X5099786Y-11897633D02*
X5004548Y-11897633D01*
X4995024Y-11992871D01*
X5004548Y-11983347D01*
X5023595Y-11973824D01*
X5071214Y-11973824D01*
X5090262Y-11983347D01*
X5099786Y-11992871D01*
X5109310Y-12011919D01*
X5109310Y-12059538D01*
X5099786Y-12078586D01*
X5090262Y-12088109D01*
X5071214Y-12097633D01*
X5023595Y-12097633D01*
X5004548Y-12088109D01*
X4995024Y-12078586D01*
X5280738Y-11964300D02*
X5280738Y-12097633D01*
X5233119Y-11888109D02*
X5185500Y-12030967D01*
X5309310Y-12030967D01*
X5375976Y-11897633D02*
X5375976Y-11935728D01*
X5452167Y-11897633D02*
X5452167Y-11935728D01*
X5747405Y-12173824D02*
X5737881Y-12164300D01*
X5718833Y-12135728D01*
X5709309Y-12116681D01*
X5699786Y-12088109D01*
X5690262Y-12040490D01*
X5690262Y-12002395D01*
X5699786Y-11954776D01*
X5709309Y-11926205D01*
X5718833Y-11907157D01*
X5737881Y-11878586D01*
X5747405Y-11869062D01*
X5861690Y-11897633D02*
X5880738Y-11897633D01*
X5899786Y-11907157D01*
X5909309Y-11916681D01*
X5918833Y-11935728D01*
X5928357Y-11973824D01*
X5928357Y-12021443D01*
X5918833Y-12059538D01*
X5909309Y-12078586D01*
X5899786Y-12088109D01*
X5880738Y-12097633D01*
X5861690Y-12097633D01*
X5842643Y-12088109D01*
X5833119Y-12078586D01*
X5823595Y-12059538D01*
X5814071Y-12021443D01*
X5814071Y-11973824D01*
X5823595Y-11935728D01*
X5833119Y-11916681D01*
X5842643Y-11907157D01*
X5861690Y-11897633D01*
X6166452Y-12097633D02*
X6166452Y-11897633D01*
X6252167Y-12097633D02*
X6252167Y-11992871D01*
X6242643Y-11973824D01*
X6223595Y-11964300D01*
X6195024Y-11964300D01*
X6175976Y-11973824D01*
X6166452Y-11983347D01*
X6375976Y-12097633D02*
X6356928Y-12088109D01*
X6347405Y-12078586D01*
X6337881Y-12059538D01*
X6337881Y-12002395D01*
X6347405Y-11983347D01*
X6356928Y-11973824D01*
X6375976Y-11964300D01*
X6404548Y-11964300D01*
X6423595Y-11973824D01*
X6433119Y-11983347D01*
X6442643Y-12002395D01*
X6442643Y-12059538D01*
X6433119Y-12078586D01*
X6423595Y-12088109D01*
X6404548Y-12097633D01*
X6375976Y-12097633D01*
X6556928Y-12097633D02*
X6537881Y-12088109D01*
X6528357Y-12069062D01*
X6528357Y-11897633D01*
X6709309Y-12088109D02*
X6690262Y-12097633D01*
X6652167Y-12097633D01*
X6633119Y-12088109D01*
X6623595Y-12069062D01*
X6623595Y-11992871D01*
X6633119Y-11973824D01*
X6652167Y-11964300D01*
X6690262Y-11964300D01*
X6709309Y-11973824D01*
X6718833Y-11992871D01*
X6718833Y-12011919D01*
X6623595Y-12030967D01*
X6795024Y-12088109D02*
X6814071Y-12097633D01*
X6852167Y-12097633D01*
X6871214Y-12088109D01*
X6880738Y-12069062D01*
X6880738Y-12059538D01*
X6871214Y-12040490D01*
X6852167Y-12030967D01*
X6823595Y-12030967D01*
X6804548Y-12021443D01*
X6795024Y-12002395D01*
X6795024Y-11992871D01*
X6804548Y-11973824D01*
X6823595Y-11964300D01*
X6852167Y-11964300D01*
X6871214Y-11973824D01*
X7118833Y-12021443D02*
X7271214Y-12021443D01*
X7195024Y-12097633D02*
X7195024Y-11945252D01*
X7547405Y-11983347D02*
X7528357Y-11973824D01*
X7518833Y-11964300D01*
X7509309Y-11945252D01*
X7509309Y-11935728D01*
X7518833Y-11916681D01*
X7528357Y-11907157D01*
X7547405Y-11897633D01*
X7585500Y-11897633D01*
X7604548Y-11907157D01*
X7614071Y-11916681D01*
X7623595Y-11935728D01*
X7623595Y-11945252D01*
X7614071Y-11964300D01*
X7604548Y-11973824D01*
X7585500Y-11983347D01*
X7547405Y-11983347D01*
X7528357Y-11992871D01*
X7518833Y-12002395D01*
X7509309Y-12021443D01*
X7509309Y-12059538D01*
X7518833Y-12078586D01*
X7528357Y-12088109D01*
X7547405Y-12097633D01*
X7585500Y-12097633D01*
X7604548Y-12088109D01*
X7614071Y-12078586D01*
X7623595Y-12059538D01*
X7623595Y-12021443D01*
X7614071Y-12002395D01*
X7604548Y-11992871D01*
X7585500Y-11983347D01*
X7852167Y-12088109D02*
X7871214Y-12097633D01*
X7909309Y-12097633D01*
X7928357Y-12088109D01*
X7937881Y-12069062D01*
X7937881Y-12059538D01*
X7928357Y-12040490D01*
X7909309Y-12030967D01*
X7880738Y-12030967D01*
X7861690Y-12021443D01*
X7852167Y-12002395D01*
X7852167Y-11992871D01*
X7861690Y-11973824D01*
X7880738Y-11964300D01*
X7909309Y-11964300D01*
X7928357Y-11973824D01*
X8052167Y-12097633D02*
X8033119Y-12088109D01*
X8023595Y-12069062D01*
X8023595Y-11897633D01*
X8156928Y-12097633D02*
X8137881Y-12088109D01*
X8128357Y-12078586D01*
X8118833Y-12059538D01*
X8118833Y-12002395D01*
X8128357Y-11983347D01*
X8137881Y-11973824D01*
X8156928Y-11964300D01*
X8185500Y-11964300D01*
X8204548Y-11973824D01*
X8214071Y-11983347D01*
X8223595Y-12002395D01*
X8223595Y-12059538D01*
X8214071Y-12078586D01*
X8204548Y-12088109D01*
X8185500Y-12097633D01*
X8156928Y-12097633D01*
X8280738Y-11964300D02*
X8356928Y-11964300D01*
X8309309Y-11897633D02*
X8309309Y-12069062D01*
X8318833Y-12088109D01*
X8337881Y-12097633D01*
X8356928Y-12097633D01*
X8414071Y-12088109D02*
X8433119Y-12097633D01*
X8471214Y-12097633D01*
X8490262Y-12088109D01*
X8499786Y-12069062D01*
X8499786Y-12059538D01*
X8490262Y-12040490D01*
X8471214Y-12030967D01*
X8442643Y-12030967D01*
X8423595Y-12021443D01*
X8414071Y-12002395D01*
X8414071Y-11992871D01*
X8423595Y-11973824D01*
X8442643Y-11964300D01*
X8471214Y-11964300D01*
X8490262Y-11973824D01*
X8566452Y-12173824D02*
X8575976Y-12164300D01*
X8595024Y-12135728D01*
X8604548Y-12116681D01*
X8614071Y-12088109D01*
X8623595Y-12040490D01*
X8623595Y-12002395D01*
X8614071Y-11954776D01*
X8604548Y-11926205D01*
X8595024Y-11907157D01*
X8575976Y-11878586D01*
X8566452Y-11869062D01*
D15*
X2156902Y-12316059D02*
X2156902Y-12226255D01*
X2067098Y-12226255D01*
X2067098Y-12316059D01*
X2156902Y-12316059D01*
D11*
X2537881Y-12361633D02*
X2423595Y-12361633D01*
X2480738Y-12361633D02*
X2480738Y-12161633D01*
X2461690Y-12190205D01*
X2442643Y-12209252D01*
X2423595Y-12218776D01*
X2623595Y-12342586D02*
X2633119Y-12352109D01*
X2623595Y-12361633D01*
X2614071Y-12352109D01*
X2623595Y-12342586D01*
X2623595Y-12361633D01*
X2709310Y-12180681D02*
X2718833Y-12171157D01*
X2737881Y-12161633D01*
X2785500Y-12161633D01*
X2804548Y-12171157D01*
X2814071Y-12180681D01*
X2823595Y-12199728D01*
X2823595Y-12218776D01*
X2814071Y-12247347D01*
X2699786Y-12361633D01*
X2823595Y-12361633D01*
X2890262Y-12161633D02*
X3023595Y-12161633D01*
X2937881Y-12361633D01*
X3137881Y-12161633D02*
X3156928Y-12161633D01*
X3175976Y-12171157D01*
X3185500Y-12180681D01*
X3195024Y-12199728D01*
X3204548Y-12237824D01*
X3204548Y-12285443D01*
X3195024Y-12323538D01*
X3185500Y-12342586D01*
X3175976Y-12352109D01*
X3156928Y-12361633D01*
X3137881Y-12361633D01*
X3118833Y-12352109D01*
X3109309Y-12342586D01*
X3099786Y-12323538D01*
X3090262Y-12285443D01*
X3090262Y-12237824D01*
X3099786Y-12199728D01*
X3109309Y-12180681D01*
X3118833Y-12171157D01*
X3137881Y-12161633D01*
X3290262Y-12361633D02*
X3290262Y-12228300D01*
X3290262Y-12247347D02*
X3299786Y-12237824D01*
X3318833Y-12228300D01*
X3347405Y-12228300D01*
X3366452Y-12237824D01*
X3375976Y-12256871D01*
X3375976Y-12361633D01*
X3375976Y-12256871D02*
X3385500Y-12237824D01*
X3404548Y-12228300D01*
X3433119Y-12228300D01*
X3452167Y-12237824D01*
X3461690Y-12256871D01*
X3461690Y-12361633D01*
X3556928Y-12361633D02*
X3556928Y-12228300D01*
X3556928Y-12247347D02*
X3566452Y-12237824D01*
X3585500Y-12228300D01*
X3614071Y-12228300D01*
X3633119Y-12237824D01*
X3642643Y-12256871D01*
X3642643Y-12361633D01*
X3642643Y-12256871D02*
X3652167Y-12237824D01*
X3671214Y-12228300D01*
X3699786Y-12228300D01*
X3718833Y-12237824D01*
X3728357Y-12256871D01*
X3728357Y-12361633D01*
X4118833Y-12152109D02*
X3947405Y-12409252D01*
X4375976Y-12161633D02*
X4395024Y-12161633D01*
X4414071Y-12171157D01*
X4423595Y-12180681D01*
X4433119Y-12199728D01*
X4442643Y-12237824D01*
X4442643Y-12285443D01*
X4433119Y-12323538D01*
X4423595Y-12342586D01*
X4414071Y-12352109D01*
X4395024Y-12361633D01*
X4375976Y-12361633D01*
X4356929Y-12352109D01*
X4347405Y-12342586D01*
X4337881Y-12323538D01*
X4328357Y-12285443D01*
X4328357Y-12237824D01*
X4337881Y-12199728D01*
X4347405Y-12180681D01*
X4356929Y-12171157D01*
X4375976Y-12161633D01*
X4528357Y-12342586D02*
X4537881Y-12352109D01*
X4528357Y-12361633D01*
X4518833Y-12352109D01*
X4528357Y-12342586D01*
X4528357Y-12361633D01*
X4661690Y-12161633D02*
X4680738Y-12161633D01*
X4699786Y-12171157D01*
X4709310Y-12180681D01*
X4718833Y-12199728D01*
X4728357Y-12237824D01*
X4728357Y-12285443D01*
X4718833Y-12323538D01*
X4709310Y-12342586D01*
X4699786Y-12352109D01*
X4680738Y-12361633D01*
X4661690Y-12361633D01*
X4642643Y-12352109D01*
X4633119Y-12342586D01*
X4623595Y-12323538D01*
X4614071Y-12285443D01*
X4614071Y-12237824D01*
X4623595Y-12199728D01*
X4633119Y-12180681D01*
X4642643Y-12171157D01*
X4661690Y-12161633D01*
X4909310Y-12161633D02*
X4814071Y-12161633D01*
X4804548Y-12256871D01*
X4814071Y-12247347D01*
X4833119Y-12237824D01*
X4880738Y-12237824D01*
X4899786Y-12247347D01*
X4909310Y-12256871D01*
X4918833Y-12275919D01*
X4918833Y-12323538D01*
X4909310Y-12342586D01*
X4899786Y-12352109D01*
X4880738Y-12361633D01*
X4833119Y-12361633D01*
X4814071Y-12352109D01*
X4804548Y-12342586D01*
X5042643Y-12161633D02*
X5061690Y-12161633D01*
X5080738Y-12171157D01*
X5090262Y-12180681D01*
X5099786Y-12199728D01*
X5109310Y-12237824D01*
X5109310Y-12285443D01*
X5099786Y-12323538D01*
X5090262Y-12342586D01*
X5080738Y-12352109D01*
X5061690Y-12361633D01*
X5042643Y-12361633D01*
X5023595Y-12352109D01*
X5014071Y-12342586D01*
X5004548Y-12323538D01*
X4995024Y-12285443D01*
X4995024Y-12237824D01*
X5004548Y-12199728D01*
X5014071Y-12180681D01*
X5023595Y-12171157D01*
X5042643Y-12161633D01*
X5233119Y-12161633D02*
X5252167Y-12161633D01*
X5271214Y-12171157D01*
X5280738Y-12180681D01*
X5290262Y-12199728D01*
X5299786Y-12237824D01*
X5299786Y-12285443D01*
X5290262Y-12323538D01*
X5280738Y-12342586D01*
X5271214Y-12352109D01*
X5252167Y-12361633D01*
X5233119Y-12361633D01*
X5214071Y-12352109D01*
X5204548Y-12342586D01*
X5195024Y-12323538D01*
X5185500Y-12285443D01*
X5185500Y-12237824D01*
X5195024Y-12199728D01*
X5204548Y-12180681D01*
X5214071Y-12171157D01*
X5233119Y-12161633D01*
X5375976Y-12161633D02*
X5375976Y-12199728D01*
X5452167Y-12161633D02*
X5452167Y-12199728D01*
X5747405Y-12437824D02*
X5737881Y-12428300D01*
X5718833Y-12399728D01*
X5709309Y-12380681D01*
X5699786Y-12352109D01*
X5690262Y-12304490D01*
X5690262Y-12266395D01*
X5699786Y-12218776D01*
X5709309Y-12190205D01*
X5718833Y-12171157D01*
X5737881Y-12142586D01*
X5747405Y-12133062D01*
X5909309Y-12161633D02*
X5871214Y-12161633D01*
X5852167Y-12171157D01*
X5842643Y-12180681D01*
X5823595Y-12209252D01*
X5814071Y-12247347D01*
X5814071Y-12323538D01*
X5823595Y-12342586D01*
X5833119Y-12352109D01*
X5852167Y-12361633D01*
X5890262Y-12361633D01*
X5909309Y-12352109D01*
X5918833Y-12342586D01*
X5928357Y-12323538D01*
X5928357Y-12275919D01*
X5918833Y-12256871D01*
X5909309Y-12247347D01*
X5890262Y-12237824D01*
X5852167Y-12237824D01*
X5833119Y-12247347D01*
X5823595Y-12256871D01*
X5814071Y-12275919D01*
X6042643Y-12247347D02*
X6023595Y-12237824D01*
X6014071Y-12228300D01*
X6004548Y-12209252D01*
X6004548Y-12199728D01*
X6014071Y-12180681D01*
X6023595Y-12171157D01*
X6042643Y-12161633D01*
X6080738Y-12161633D01*
X6099786Y-12171157D01*
X6109309Y-12180681D01*
X6118833Y-12199728D01*
X6118833Y-12209252D01*
X6109309Y-12228300D01*
X6099786Y-12237824D01*
X6080738Y-12247347D01*
X6042643Y-12247347D01*
X6023595Y-12256871D01*
X6014071Y-12266395D01*
X6004548Y-12285443D01*
X6004548Y-12323538D01*
X6014071Y-12342586D01*
X6023595Y-12352109D01*
X6042643Y-12361633D01*
X6080738Y-12361633D01*
X6099786Y-12352109D01*
X6109309Y-12342586D01*
X6118833Y-12323538D01*
X6118833Y-12285443D01*
X6109309Y-12266395D01*
X6099786Y-12256871D01*
X6080738Y-12247347D01*
X6356928Y-12361633D02*
X6356928Y-12161633D01*
X6442643Y-12361633D02*
X6442643Y-12256871D01*
X6433119Y-12237824D01*
X6414071Y-12228300D01*
X6385500Y-12228300D01*
X6366452Y-12237824D01*
X6356928Y-12247347D01*
X6566452Y-12361633D02*
X6547405Y-12352109D01*
X6537881Y-12342586D01*
X6528357Y-12323538D01*
X6528357Y-12266395D01*
X6537881Y-12247347D01*
X6547405Y-12237824D01*
X6566452Y-12228300D01*
X6595024Y-12228300D01*
X6614071Y-12237824D01*
X6623595Y-12247347D01*
X6633119Y-12266395D01*
X6633119Y-12323538D01*
X6623595Y-12342586D01*
X6614071Y-12352109D01*
X6595024Y-12361633D01*
X6566452Y-12361633D01*
X6747405Y-12361633D02*
X6728357Y-12352109D01*
X6718833Y-12333062D01*
X6718833Y-12161633D01*
X6899786Y-12352109D02*
X6880738Y-12361633D01*
X6842643Y-12361633D01*
X6823595Y-12352109D01*
X6814071Y-12333062D01*
X6814071Y-12256871D01*
X6823595Y-12237824D01*
X6842643Y-12228300D01*
X6880738Y-12228300D01*
X6899786Y-12237824D01*
X6909309Y-12256871D01*
X6909309Y-12275919D01*
X6814071Y-12294967D01*
X6985500Y-12352109D02*
X7004548Y-12361633D01*
X7042643Y-12361633D01*
X7061690Y-12352109D01*
X7071214Y-12333062D01*
X7071214Y-12323538D01*
X7061690Y-12304490D01*
X7042643Y-12294967D01*
X7014071Y-12294967D01*
X6995024Y-12285443D01*
X6985500Y-12266395D01*
X6985500Y-12256871D01*
X6995024Y-12237824D01*
X7014071Y-12228300D01*
X7042643Y-12228300D01*
X7061690Y-12237824D01*
X7137881Y-12437824D02*
X7147405Y-12428300D01*
X7166452Y-12399728D01*
X7175976Y-12380681D01*
X7185500Y-12352109D01*
X7195024Y-12304490D01*
X7195024Y-12266395D01*
X7185500Y-12218776D01*
X7175976Y-12190205D01*
X7166452Y-12171157D01*
X7147405Y-12142586D01*
X7137881Y-12133062D01*
X2075500Y-12635157D02*
X2175500Y-12535157D01*
X2075500Y-12435157D01*
X1975500Y-12535157D01*
X2075500Y-12635157D01*
X2423595Y-12444681D02*
X2433119Y-12435157D01*
X2452167Y-12425633D01*
X2499786Y-12425633D01*
X2518833Y-12435157D01*
X2528357Y-12444681D01*
X2537881Y-12463728D01*
X2537881Y-12482776D01*
X2528357Y-12511347D01*
X2414071Y-12625633D01*
X2537881Y-12625633D01*
X2623595Y-12606586D02*
X2633119Y-12616109D01*
X2623595Y-12625633D01*
X2614071Y-12616109D01*
X2623595Y-12606586D01*
X2623595Y-12625633D01*
X2709310Y-12444681D02*
X2718833Y-12435157D01*
X2737881Y-12425633D01*
X2785500Y-12425633D01*
X2804548Y-12435157D01*
X2814071Y-12444681D01*
X2823595Y-12463728D01*
X2823595Y-12482776D01*
X2814071Y-12511347D01*
X2699786Y-12625633D01*
X2823595Y-12625633D01*
X2947405Y-12425633D02*
X2966452Y-12425633D01*
X2985500Y-12435157D01*
X2995024Y-12444681D01*
X3004548Y-12463728D01*
X3014071Y-12501824D01*
X3014071Y-12549443D01*
X3004548Y-12587538D01*
X2995024Y-12606586D01*
X2985500Y-12616109D01*
X2966452Y-12625633D01*
X2947405Y-12625633D01*
X2928357Y-12616109D01*
X2918833Y-12606586D01*
X2909309Y-12587538D01*
X2899786Y-12549443D01*
X2899786Y-12501824D01*
X2909309Y-12463728D01*
X2918833Y-12444681D01*
X2928357Y-12435157D01*
X2947405Y-12425633D01*
X3137881Y-12425633D02*
X3156928Y-12425633D01*
X3175976Y-12435157D01*
X3185500Y-12444681D01*
X3195024Y-12463728D01*
X3204548Y-12501824D01*
X3204548Y-12549443D01*
X3195024Y-12587538D01*
X3185500Y-12606586D01*
X3175976Y-12616109D01*
X3156928Y-12625633D01*
X3137881Y-12625633D01*
X3118833Y-12616109D01*
X3109309Y-12606586D01*
X3099786Y-12587538D01*
X3090262Y-12549443D01*
X3090262Y-12501824D01*
X3099786Y-12463728D01*
X3109309Y-12444681D01*
X3118833Y-12435157D01*
X3137881Y-12425633D01*
X3290262Y-12625633D02*
X3290262Y-12492300D01*
X3290262Y-12511347D02*
X3299786Y-12501824D01*
X3318833Y-12492300D01*
X3347405Y-12492300D01*
X3366452Y-12501824D01*
X3375976Y-12520871D01*
X3375976Y-12625633D01*
X3375976Y-12520871D02*
X3385500Y-12501824D01*
X3404548Y-12492300D01*
X3433119Y-12492300D01*
X3452167Y-12501824D01*
X3461690Y-12520871D01*
X3461690Y-12625633D01*
X3556928Y-12625633D02*
X3556928Y-12492300D01*
X3556928Y-12511347D02*
X3566452Y-12501824D01*
X3585500Y-12492300D01*
X3614071Y-12492300D01*
X3633119Y-12501824D01*
X3642643Y-12520871D01*
X3642643Y-12625633D01*
X3642643Y-12520871D02*
X3652167Y-12501824D01*
X3671214Y-12492300D01*
X3699786Y-12492300D01*
X3718833Y-12501824D01*
X3728357Y-12520871D01*
X3728357Y-12625633D01*
X4118833Y-12416109D02*
X3947405Y-12673252D01*
X4375976Y-12425633D02*
X4395024Y-12425633D01*
X4414071Y-12435157D01*
X4423595Y-12444681D01*
X4433119Y-12463728D01*
X4442643Y-12501824D01*
X4442643Y-12549443D01*
X4433119Y-12587538D01*
X4423595Y-12606586D01*
X4414071Y-12616109D01*
X4395024Y-12625633D01*
X4375976Y-12625633D01*
X4356929Y-12616109D01*
X4347405Y-12606586D01*
X4337881Y-12587538D01*
X4328357Y-12549443D01*
X4328357Y-12501824D01*
X4337881Y-12463728D01*
X4347405Y-12444681D01*
X4356929Y-12435157D01*
X4375976Y-12425633D01*
X4528357Y-12606586D02*
X4537881Y-12616109D01*
X4528357Y-12625633D01*
X4518833Y-12616109D01*
X4528357Y-12606586D01*
X4528357Y-12625633D01*
X4661690Y-12425633D02*
X4680738Y-12425633D01*
X4699786Y-12435157D01*
X4709310Y-12444681D01*
X4718833Y-12463728D01*
X4728357Y-12501824D01*
X4728357Y-12549443D01*
X4718833Y-12587538D01*
X4709310Y-12606586D01*
X4699786Y-12616109D01*
X4680738Y-12625633D01*
X4661690Y-12625633D01*
X4642643Y-12616109D01*
X4633119Y-12606586D01*
X4623595Y-12587538D01*
X4614071Y-12549443D01*
X4614071Y-12501824D01*
X4623595Y-12463728D01*
X4633119Y-12444681D01*
X4642643Y-12435157D01*
X4661690Y-12425633D01*
X4842643Y-12511347D02*
X4823595Y-12501824D01*
X4814071Y-12492300D01*
X4804548Y-12473252D01*
X4804548Y-12463728D01*
X4814071Y-12444681D01*
X4823595Y-12435157D01*
X4842643Y-12425633D01*
X4880738Y-12425633D01*
X4899786Y-12435157D01*
X4909310Y-12444681D01*
X4918833Y-12463728D01*
X4918833Y-12473252D01*
X4909310Y-12492300D01*
X4899786Y-12501824D01*
X4880738Y-12511347D01*
X4842643Y-12511347D01*
X4823595Y-12520871D01*
X4814071Y-12530395D01*
X4804548Y-12549443D01*
X4804548Y-12587538D01*
X4814071Y-12606586D01*
X4823595Y-12616109D01*
X4842643Y-12625633D01*
X4880738Y-12625633D01*
X4899786Y-12616109D01*
X4909310Y-12606586D01*
X4918833Y-12587538D01*
X4918833Y-12549443D01*
X4909310Y-12530395D01*
X4899786Y-12520871D01*
X4880738Y-12511347D01*
X5090262Y-12425633D02*
X5052167Y-12425633D01*
X5033119Y-12435157D01*
X5023595Y-12444681D01*
X5004548Y-12473252D01*
X4995024Y-12511347D01*
X4995024Y-12587538D01*
X5004548Y-12606586D01*
X5014071Y-12616109D01*
X5033119Y-12625633D01*
X5071214Y-12625633D01*
X5090262Y-12616109D01*
X5099786Y-12606586D01*
X5109310Y-12587538D01*
X5109310Y-12539919D01*
X5099786Y-12520871D01*
X5090262Y-12511347D01*
X5071214Y-12501824D01*
X5033119Y-12501824D01*
X5014071Y-12511347D01*
X5004548Y-12520871D01*
X4995024Y-12539919D01*
X5280738Y-12425633D02*
X5242643Y-12425633D01*
X5223595Y-12435157D01*
X5214071Y-12444681D01*
X5195024Y-12473252D01*
X5185500Y-12511347D01*
X5185500Y-12587538D01*
X5195024Y-12606586D01*
X5204548Y-12616109D01*
X5223595Y-12625633D01*
X5261690Y-12625633D01*
X5280738Y-12616109D01*
X5290262Y-12606586D01*
X5299786Y-12587538D01*
X5299786Y-12539919D01*
X5290262Y-12520871D01*
X5280738Y-12511347D01*
X5261690Y-12501824D01*
X5223595Y-12501824D01*
X5204548Y-12511347D01*
X5195024Y-12520871D01*
X5185500Y-12539919D01*
X5375976Y-12425633D02*
X5375976Y-12463728D01*
X5452167Y-12425633D02*
X5452167Y-12463728D01*
X5747405Y-12701824D02*
X5737881Y-12692300D01*
X5718833Y-12663728D01*
X5709309Y-12644681D01*
X5699786Y-12616109D01*
X5690262Y-12568490D01*
X5690262Y-12530395D01*
X5699786Y-12482776D01*
X5709309Y-12454205D01*
X5718833Y-12435157D01*
X5737881Y-12406586D01*
X5747405Y-12397062D01*
X5852167Y-12511347D02*
X5833119Y-12501824D01*
X5823595Y-12492300D01*
X5814071Y-12473252D01*
X5814071Y-12463728D01*
X5823595Y-12444681D01*
X5833119Y-12435157D01*
X5852167Y-12425633D01*
X5890262Y-12425633D01*
X5909309Y-12435157D01*
X5918833Y-12444681D01*
X5928357Y-12463728D01*
X5928357Y-12473252D01*
X5918833Y-12492300D01*
X5909309Y-12501824D01*
X5890262Y-12511347D01*
X5852167Y-12511347D01*
X5833119Y-12520871D01*
X5823595Y-12530395D01*
X5814071Y-12549443D01*
X5814071Y-12587538D01*
X5823595Y-12606586D01*
X5833119Y-12616109D01*
X5852167Y-12625633D01*
X5890262Y-12625633D01*
X5909309Y-12616109D01*
X5918833Y-12606586D01*
X5928357Y-12587538D01*
X5928357Y-12549443D01*
X5918833Y-12530395D01*
X5909309Y-12520871D01*
X5890262Y-12511347D01*
X6166452Y-12625633D02*
X6166452Y-12425633D01*
X6252167Y-12625633D02*
X6252167Y-12520871D01*
X6242643Y-12501824D01*
X6223595Y-12492300D01*
X6195024Y-12492300D01*
X6175976Y-12501824D01*
X6166452Y-12511347D01*
X6375976Y-12625633D02*
X6356928Y-12616109D01*
X6347405Y-12606586D01*
X6337881Y-12587538D01*
X6337881Y-12530395D01*
X6347405Y-12511347D01*
X6356928Y-12501824D01*
X6375976Y-12492300D01*
X6404548Y-12492300D01*
X6423595Y-12501824D01*
X6433119Y-12511347D01*
X6442643Y-12530395D01*
X6442643Y-12587538D01*
X6433119Y-12606586D01*
X6423595Y-12616109D01*
X6404548Y-12625633D01*
X6375976Y-12625633D01*
X6556928Y-12625633D02*
X6537881Y-12616109D01*
X6528357Y-12597062D01*
X6528357Y-12425633D01*
X6709309Y-12616109D02*
X6690262Y-12625633D01*
X6652167Y-12625633D01*
X6633119Y-12616109D01*
X6623595Y-12597062D01*
X6623595Y-12520871D01*
X6633119Y-12501824D01*
X6652167Y-12492300D01*
X6690262Y-12492300D01*
X6709309Y-12501824D01*
X6718833Y-12520871D01*
X6718833Y-12539919D01*
X6623595Y-12558967D01*
X6795024Y-12616109D02*
X6814071Y-12625633D01*
X6852167Y-12625633D01*
X6871214Y-12616109D01*
X6880738Y-12597062D01*
X6880738Y-12587538D01*
X6871214Y-12568490D01*
X6852167Y-12558967D01*
X6823595Y-12558967D01*
X6804548Y-12549443D01*
X6795024Y-12530395D01*
X6795024Y-12520871D01*
X6804548Y-12501824D01*
X6823595Y-12492300D01*
X6852167Y-12492300D01*
X6871214Y-12501824D01*
X6947405Y-12701824D02*
X6956928Y-12692300D01*
X6975976Y-12663728D01*
X6985500Y-12644681D01*
X6995024Y-12616109D01*
X7004548Y-12568490D01*
X7004548Y-12530395D01*
X6995024Y-12482776D01*
X6985500Y-12454205D01*
X6975976Y-12435157D01*
X6956928Y-12406586D01*
X6947405Y-12397062D01*
M02*
