%TF.GenerationSoftware,KiCad,Pcbnew,(6.0.4)*%
%TF.CreationDate,2022-04-16T22:52:17+02:00*%
%TF.ProjectId,sweepv2.1-julien,73776565-7076-4322-9e31-2d6a756c6965,rev?*%
%TF.SameCoordinates,Original*%
%TF.FileFunction,Soldermask,Bot*%
%TF.FilePolarity,Negative*%
%FSLAX46Y46*%
G04 Gerber Fmt 4.6, Leading zero omitted, Abs format (unit mm)*
G04 Created by KiCad (PCBNEW (6.0.4)) date 2022-04-16 22:52:17*
%MOMM*%
%LPD*%
G01*
G04 APERTURE LIST*
%TA.AperFunction,Profile*%
%ADD10C,0.050000*%
%TD*%
%ADD11C,1.524000*%
%ADD12C,0.800000*%
%ADD13O,2.000000X1.600000*%
%ADD14C,1.701800*%
%ADD15C,0.990600*%
%ADD16C,3.429000*%
%ADD17C,2.032000*%
%ADD18C,0.500000*%
%ADD19C,4.400000*%
%ADD20C,1.397000*%
%ADD21C,1.000000*%
%ADD22R,0.900000X0.900000*%
%ADD23R,0.900000X1.250000*%
G04 APERTURE END LIST*
D10*
X131508500Y-77724000D02*
X131506000Y-89547024D01*
X219998001Y-47763999D02*
X219998045Y-30439419D01*
X223714000Y-108050000D02*
G75*
G03*
X226446000Y-107451265I1070000J1650000D01*
G01*
X219998002Y-47763999D02*
G75*
G03*
X222033002Y-49694917I1999998J69999D01*
G01*
X219563295Y-29758875D02*
G75*
G03*
X182067777Y-21502679I-49442795J-135273425D01*
G01*
X178120389Y-21508122D02*
G75*
G03*
X132892692Y-38264646I-253989J-68729978D01*
G01*
X238688000Y-50442000D02*
G75*
G03*
X237938000Y-49692000I-750000J0D01*
G01*
X132893000Y-38265000D02*
G75*
G03*
X131466055Y-40278702I2445000J-3245000D01*
G01*
X131506294Y-89547021D02*
G75*
G03*
X133544000Y-91383119I1978006J146421D01*
G01*
X219998002Y-30439419D02*
G75*
G03*
X219563290Y-29758889I-750002J19D01*
G01*
X223714000Y-108050000D02*
G75*
G03*
X202185134Y-98863946I-44316000J-74040000D01*
G01*
X222033002Y-49694917D02*
X237938000Y-49692000D01*
X202185136Y-98863939D02*
G75*
G03*
X133544000Y-91383119I-69219136J-316475461D01*
G01*
X238688000Y-58420000D02*
X238688000Y-66548000D01*
X236953304Y-88858150D02*
X226446000Y-107451265D01*
X236953327Y-88858162D02*
G75*
G03*
X238700000Y-81534000I-15027227J7454062D01*
G01*
X182067777Y-21502679D02*
X178120389Y-21508139D01*
X238688000Y-50442000D02*
X238688000Y-58420000D01*
X131466055Y-40278702D02*
X131572000Y-48768000D01*
X129349500Y-48768000D02*
X128960000Y-48768000D01*
X238688000Y-66548000D02*
X238688000Y-75438000D01*
X238688000Y-75438000D02*
X238700000Y-81534000D01*
X129349500Y-72644000D02*
X128960000Y-72644000D01*
X129349500Y-53848000D02*
X128960000Y-53848000D01*
X129349500Y-77724000D02*
X128960000Y-77724000D01*
X131572000Y-53848000D02*
X131572000Y-72644000D01*
X78412223Y-21502679D02*
X82613611Y-21508139D01*
X21792000Y-50442000D02*
X21792000Y-58420000D01*
X128960000Y-77724000D02*
X128975507Y-89545022D01*
X129013945Y-40278702D02*
G75*
G03*
X127587000Y-38265000I-3871945J-1231298D01*
G01*
X126936000Y-91383122D02*
G75*
G03*
X128975507Y-89545022I59500J1984522D01*
G01*
X40481999Y-47763999D02*
X40481955Y-30439419D01*
X21792000Y-66548000D02*
X21792000Y-73914000D01*
X23526696Y-88858150D02*
X34034000Y-107451265D01*
X38446998Y-49694918D02*
G75*
G03*
X40481999Y-47763999I35002J2000918D01*
G01*
X78412223Y-21502678D02*
G75*
G03*
X40916710Y-29758889I11947327J-143529582D01*
G01*
X126936000Y-91383119D02*
G75*
G03*
X58294866Y-98863946I578050J-323956411D01*
G01*
X21779999Y-81534000D02*
G75*
G03*
X23526696Y-88858150I16773851J129950D01*
G01*
X22542000Y-49692000D02*
G75*
G03*
X21792000Y-50442000I0J-750000D01*
G01*
X38446998Y-49694917D02*
X22542000Y-49692000D01*
X21792000Y-58420000D02*
X21792000Y-66548000D01*
X40916692Y-29758850D02*
G75*
G03*
X40481955Y-30439419I315308J-680550D01*
G01*
X34034000Y-107451265D02*
G75*
G03*
X36766000Y-108050000I1662000J1051265D01*
G01*
X127586989Y-38265013D02*
G75*
G03*
X82613611Y-21508139I-44973389J-51973087D01*
G01*
X58294866Y-98863946D02*
G75*
G03*
X36766000Y-108050000I22787134J-83226054D01*
G01*
X21792000Y-73914000D02*
X21780000Y-81534000D01*
X128960000Y-53848000D02*
X128960000Y-72644000D01*
X129013945Y-40278702D02*
X128960000Y-48768000D01*
X131572000Y-72644000D02*
X131254500Y-72644000D01*
X129349501Y-48767999D02*
G75*
G03*
X131254499Y-48768000I952499J380999D01*
G01*
X131254499Y-77724001D02*
G75*
G03*
X129349501Y-77724000I-952499J-380999D01*
G01*
X131254499Y-53848001D02*
G75*
G03*
X129349501Y-53848000I-952499J-380999D01*
G01*
X131572000Y-48768000D02*
X131254500Y-48768000D01*
X129349501Y-72643999D02*
G75*
G03*
X131254499Y-72644000I952499J380999D01*
G01*
X131508500Y-77724000D02*
X131254500Y-77724000D01*
X131572000Y-53848000D02*
X131254500Y-53848000D01*
D11*
%TO.C,U1*%
X237789400Y-53086000D03*
X237789400Y-55626000D03*
X237789400Y-58166000D03*
X237789400Y-60706000D03*
X237789400Y-63246000D03*
X237789400Y-65786000D03*
X237789400Y-68326000D03*
X237789400Y-70866000D03*
X237789400Y-73406000D03*
X237789400Y-75946000D03*
X237789400Y-78486000D03*
X237789400Y-81026000D03*
X222569400Y-81026000D03*
X222569400Y-78486000D03*
X222569400Y-75946000D03*
X222569400Y-73406000D03*
X222569400Y-70866000D03*
X222569400Y-68326000D03*
X222569400Y-65786000D03*
X222569400Y-63246000D03*
X222569400Y-60706000D03*
X222569400Y-58166000D03*
X222569400Y-55626000D03*
X222569400Y-53086000D03*
%TD*%
D12*
%TO.C,J2*%
X227874000Y-86052000D03*
X234874000Y-86052000D03*
D13*
X230274000Y-88352000D03*
X233274000Y-88352000D03*
X225174000Y-83752000D03*
X226274000Y-88352000D03*
%TD*%
D14*
%TO.C,SW16*%
X181356000Y-64516000D03*
D15*
X181076000Y-60316000D03*
D16*
X175856000Y-64516000D03*
D15*
X170636000Y-60316000D03*
D14*
X170356000Y-64516000D03*
D17*
X175856000Y-70416000D03*
X170856000Y-68316000D03*
%TD*%
D16*
%TO.C,SW20*%
X222386000Y-98082000D03*
D15*
X224806653Y-104329307D03*
D14*
X227149140Y-100832000D03*
X217622860Y-95332000D03*
D15*
X215765347Y-99109307D03*
D17*
X225336000Y-92972450D03*
X228616127Y-97291103D03*
%TD*%
D16*
%TO.C,SW15*%
X157856000Y-71374000D03*
D14*
X152356000Y-71374000D03*
D15*
X163076000Y-67174000D03*
X152636000Y-67174000D03*
D14*
X163356000Y-71374000D03*
D17*
X157856000Y-77274000D03*
X152856000Y-75174000D03*
%TD*%
D15*
%TO.C,SW21*%
X207781093Y-95489924D03*
D14*
X198513408Y-88658495D03*
X209138592Y-91505505D03*
D16*
X203826000Y-90082000D03*
D15*
X197696827Y-92787853D03*
D17*
X205353032Y-84383038D03*
X209639142Y-87705577D03*
%TD*%
D14*
%TO.C,SW17*%
X199356000Y-69850000D03*
D15*
X199076000Y-65650000D03*
D16*
X193856000Y-69850000D03*
D14*
X188356000Y-69850000D03*
D15*
X188636000Y-65650000D03*
D17*
X193856000Y-75750000D03*
X188856000Y-73650000D03*
%TD*%
D16*
%TO.C,SW18*%
X211836000Y-72390000D03*
D14*
X206336000Y-72390000D03*
X217336000Y-72390000D03*
D15*
X217056000Y-68190000D03*
X206616000Y-68190000D03*
D17*
X211836000Y-78290000D03*
X206836000Y-76190000D03*
%TD*%
D15*
%TO.C,SW4*%
X170636000Y-26182000D03*
D14*
X170356000Y-30382000D03*
X181356000Y-30382000D03*
D16*
X175856000Y-30382000D03*
D15*
X181076000Y-26182000D03*
D17*
X175856000Y-36282000D03*
X170856000Y-34182000D03*
%TD*%
D14*
%TO.C,SW3*%
X152356000Y-37382000D03*
X163356000Y-37382000D03*
D15*
X163076000Y-33182000D03*
D16*
X157856000Y-37382000D03*
D15*
X152636000Y-33182000D03*
D17*
X157856000Y-43282000D03*
X152856000Y-41182000D03*
%TD*%
D14*
%TO.C,SW9*%
X163356000Y-54356000D03*
D16*
X157856000Y-54356000D03*
D15*
X152636000Y-50156000D03*
X163076000Y-50156000D03*
D14*
X152356000Y-54356000D03*
D17*
X157856000Y-60256000D03*
X152856000Y-58156000D03*
%TD*%
D15*
%TO.C,SW14*%
X134636000Y-79182000D03*
D14*
X145356000Y-83382000D03*
X134356000Y-83382000D03*
D16*
X139856000Y-83382000D03*
D15*
X145076000Y-79182000D03*
D17*
X139856000Y-89282000D03*
X134856000Y-87182000D03*
%TD*%
D14*
%TO.C,SW12*%
X206336000Y-55372000D03*
D15*
X206616000Y-51172000D03*
X217056000Y-51172000D03*
D14*
X217336000Y-55372000D03*
D16*
X211836000Y-55372000D03*
D17*
X211836000Y-61272000D03*
X206836000Y-59172000D03*
%TD*%
D14*
%TO.C,SW11*%
X188356000Y-52832000D03*
X199356000Y-52832000D03*
D15*
X188636000Y-48632000D03*
D16*
X193856000Y-52832000D03*
D15*
X199076000Y-48632000D03*
D17*
X193856000Y-58732000D03*
X188856000Y-56632000D03*
%TD*%
D14*
%TO.C,SW8*%
X134356000Y-66382000D03*
D16*
X139856000Y-66382000D03*
D14*
X145356000Y-66382000D03*
D15*
X145076000Y-62182000D03*
X134636000Y-62182000D03*
D17*
X139856000Y-72282000D03*
X134856000Y-70182000D03*
%TD*%
D16*
%TO.C,SW6*%
X211856000Y-38382000D03*
D15*
X206636000Y-34182000D03*
X217076000Y-34182000D03*
D14*
X206356000Y-38382000D03*
X217356000Y-38382000D03*
D17*
X211856000Y-44282000D03*
X206856000Y-42182000D03*
%TD*%
D14*
%TO.C,SW5*%
X199356000Y-35882000D03*
D16*
X193856000Y-35882000D03*
D15*
X199076000Y-31682000D03*
X188636000Y-31682000D03*
D14*
X188356000Y-35882000D03*
D17*
X193856000Y-41782000D03*
X188856000Y-39682000D03*
%TD*%
D14*
%TO.C,SW2*%
X145356000Y-49382000D03*
D16*
X139856000Y-49382000D03*
D14*
X134356000Y-49382000D03*
D15*
X134636000Y-45182000D03*
X145076000Y-45182000D03*
D17*
X139856000Y-55282000D03*
X134856000Y-53182000D03*
%TD*%
D18*
%TO.C,mouse-bite-2mm-slot*%
X131318000Y-51308000D03*
X131318000Y-53340000D03*
X129286000Y-53340000D03*
X129286000Y-52324000D03*
X129286000Y-51308000D03*
X131318000Y-49276000D03*
X131318000Y-52324000D03*
X129286000Y-50292000D03*
X129286000Y-49276000D03*
X131318000Y-50292000D03*
%TD*%
%TO.C,mouse-bite-2mm-slot*%
X131318000Y-76200000D03*
X131318000Y-73152000D03*
X129286000Y-73152000D03*
X129286000Y-74168000D03*
X129286000Y-75184000D03*
X131318000Y-74168000D03*
X129286000Y-76200000D03*
X129286000Y-77216000D03*
X131318000Y-75184000D03*
X131318000Y-77216000D03*
%TD*%
D16*
%TO.C,SW10*%
X175856000Y-47498000D03*
D14*
X170356000Y-47498000D03*
X181356000Y-47498000D03*
D15*
X181076000Y-43298000D03*
X170636000Y-43298000D03*
D17*
X175856000Y-53398000D03*
X170856000Y-51298000D03*
%TD*%
D19*
%TO.C,REF\u002A\u002A*%
X166306000Y-46282000D03*
X204406000Y-46282000D03*
X185356000Y-65332000D03*
X185356000Y-27232000D03*
%TD*%
D20*
%TO.C,Bat+r1*%
X235966000Y-50800000D03*
%TD*%
%TO.C,BatGND1*%
X224282000Y-50800000D03*
%TD*%
D11*
%TO.C,U2*%
X37937400Y-53086000D03*
X37937400Y-55626000D03*
X37937400Y-58166000D03*
X37937400Y-60706000D03*
X37937400Y-63246000D03*
X37937400Y-65786000D03*
X37937400Y-68326000D03*
X37937400Y-70866000D03*
X37937400Y-73406000D03*
X37937400Y-75946000D03*
X37937400Y-78486000D03*
X37937400Y-81026000D03*
X22717400Y-81026000D03*
X22717400Y-78486000D03*
X22717400Y-75946000D03*
X22717400Y-73406000D03*
X22717400Y-70866000D03*
X22717400Y-68326000D03*
X22717400Y-65786000D03*
X22717400Y-63246000D03*
X22717400Y-60706000D03*
X22717400Y-58166000D03*
X22717400Y-55626000D03*
X22717400Y-53086000D03*
%TD*%
D12*
%TO.C,J1*%
X25476000Y-86052000D03*
X32476000Y-86052000D03*
D13*
X30076000Y-83752000D03*
X27076000Y-83752000D03*
X35176000Y-88352000D03*
X34076000Y-83752000D03*
%TD*%
D16*
%TO.C,SW17_r1*%
X48686000Y-72390000D03*
D15*
X43466000Y-68190000D03*
D14*
X43186000Y-72390000D03*
X54186000Y-72390000D03*
D15*
X53906000Y-68190000D03*
D17*
X48686000Y-78290000D03*
X43686000Y-76190000D03*
%TD*%
D15*
%TO.C,SW11_r1*%
X71920000Y-48632000D03*
X61480000Y-48632000D03*
D14*
X61200000Y-52832000D03*
D16*
X66700000Y-52832000D03*
D14*
X72200000Y-52832000D03*
D17*
X66700000Y-58732000D03*
X61700000Y-56632000D03*
%TD*%
D15*
%TO.C,SW15_r1*%
X89908000Y-60316000D03*
D14*
X79188000Y-64516000D03*
X90188000Y-64516000D03*
D16*
X84688000Y-64516000D03*
D15*
X79468000Y-60316000D03*
D17*
X84688000Y-70416000D03*
X79688000Y-68316000D03*
%TD*%
D15*
%TO.C,SW18_r1*%
X107934000Y-67174000D03*
D16*
X102714000Y-71374000D03*
D14*
X97214000Y-71374000D03*
X108214000Y-71374000D03*
D15*
X97494000Y-67174000D03*
D17*
X102714000Y-77274000D03*
X97714000Y-75174000D03*
%TD*%
D14*
%TO.C,SW6_r1*%
X54186000Y-38382000D03*
D15*
X43466000Y-34182000D03*
X53906000Y-34182000D03*
D14*
X43186000Y-38382000D03*
D16*
X48686000Y-38382000D03*
D17*
X48686000Y-44282000D03*
X43686000Y-42182000D03*
%TD*%
D15*
%TO.C,SW5_r1*%
X61480000Y-31682000D03*
D14*
X61200000Y-35882000D03*
D16*
X66700000Y-35882000D03*
D15*
X71920000Y-31682000D03*
D14*
X72200000Y-35882000D03*
D17*
X66700000Y-41782000D03*
X61700000Y-39682000D03*
%TD*%
D14*
%TO.C,SW2_r1*%
X115232000Y-49382000D03*
D15*
X115512000Y-45182000D03*
X125952000Y-45182000D03*
D16*
X120732000Y-49382000D03*
D14*
X126232000Y-49382000D03*
D17*
X120732000Y-55282000D03*
X115732000Y-53182000D03*
%TD*%
D14*
%TO.C,SW16_r1*%
X61200000Y-69850000D03*
X72200000Y-69850000D03*
D15*
X61480000Y-65650000D03*
D16*
X66700000Y-69850000D03*
D15*
X71920000Y-65650000D03*
D17*
X66700000Y-75750000D03*
X61700000Y-73650000D03*
%TD*%
D14*
%TO.C,SW4_r1*%
X90188000Y-30382000D03*
X79188000Y-30382000D03*
D16*
X84688000Y-30382000D03*
D15*
X89908000Y-26182000D03*
X79468000Y-26182000D03*
D17*
X84688000Y-36282000D03*
X79688000Y-34182000D03*
%TD*%
D15*
%TO.C,SW13_r1*%
X125952000Y-79182000D03*
D16*
X120732000Y-83382000D03*
D15*
X115512000Y-79182000D03*
D14*
X115232000Y-83382000D03*
X126232000Y-83382000D03*
D17*
X120732000Y-89282000D03*
X115732000Y-87182000D03*
%TD*%
D15*
%TO.C,SW12_r1*%
X53906000Y-51172000D03*
D14*
X54186000Y-55372000D03*
D15*
X43466000Y-51172000D03*
D14*
X43186000Y-55372000D03*
D16*
X48686000Y-55372000D03*
D17*
X48686000Y-61272000D03*
X43686000Y-59172000D03*
%TD*%
D15*
%TO.C,SW3_r1*%
X107934000Y-33182000D03*
D16*
X102714000Y-37382000D03*
D15*
X97494000Y-33182000D03*
D14*
X97214000Y-37382000D03*
X108214000Y-37382000D03*
D17*
X102714000Y-43282000D03*
X97714000Y-41182000D03*
%TD*%
D16*
%TO.C,SW8_r1*%
X102714000Y-54356000D03*
D14*
X108214000Y-54356000D03*
D15*
X107934000Y-50156000D03*
X97494000Y-50156000D03*
D14*
X97214000Y-54356000D03*
D17*
X102714000Y-60256000D03*
X97714000Y-58156000D03*
%TD*%
D14*
%TO.C,SW21_r1*%
X51465408Y-91505505D03*
D15*
X62907173Y-92787853D03*
D16*
X56778000Y-90082000D03*
D15*
X52822907Y-95489924D03*
D14*
X62090592Y-88658495D03*
D17*
X55250968Y-84383038D03*
X60624117Y-85117387D03*
%TD*%
D16*
%TO.C,SW9_r1*%
X84688000Y-47498000D03*
D15*
X79468000Y-43298000D03*
D14*
X79188000Y-47498000D03*
X90188000Y-47498000D03*
D15*
X89908000Y-43298000D03*
D17*
X84688000Y-53398000D03*
X79688000Y-51298000D03*
%TD*%
D14*
%TO.C,SW20_r1*%
X33454860Y-100832000D03*
X42981140Y-95332000D03*
D15*
X44838653Y-99109307D03*
X35797347Y-104329307D03*
D16*
X38218000Y-98082000D03*
D17*
X35268000Y-92972450D03*
X40648127Y-92291103D03*
%TD*%
D15*
%TO.C,SW7_r1*%
X115512000Y-62182000D03*
X125952000Y-62182000D03*
D14*
X126232000Y-66382000D03*
D16*
X120732000Y-66382000D03*
D14*
X115232000Y-66382000D03*
D17*
X120732000Y-72282000D03*
X115732000Y-70182000D03*
%TD*%
D19*
%TO.C,REF\u002A\u002A*%
X94742000Y-46282000D03*
X75692000Y-65332000D03*
X56642000Y-46282000D03*
X75692000Y-27232000D03*
%TD*%
D20*
%TO.C,BatGND4*%
X36068000Y-50800000D03*
%TD*%
%TO.C,Bat+1*%
X24638000Y-50800000D03*
%TD*%
D21*
%TO.C,SW_POWERR1*%
X228624000Y-51816000D03*
X231624000Y-51816000D03*
D22*
X226424000Y-50716000D03*
X226424000Y-52916000D03*
X233824000Y-52916000D03*
X233824000Y-50716000D03*
D23*
X227874000Y-53891000D03*
X230874000Y-53891000D03*
X232374000Y-53891000D03*
%TD*%
D21*
%TO.C,SW_POWER1*%
X31980000Y-51816000D03*
X28980000Y-51816000D03*
D22*
X26780000Y-52916000D03*
X34180000Y-50716000D03*
X34180000Y-52916000D03*
X26780000Y-50716000D03*
D23*
X28230000Y-53891000D03*
X31230000Y-53891000D03*
X32730000Y-53891000D03*
%TD*%
M02*
