M48
; DRILL file {KiCad (6.0.4)} date Sat Apr 16 22:53:24 2022
; FORMAT={-:-/ absolute / metric / decimal}
; #@! TF.CreationDate,2022-04-16T22:53:24+02:00
; #@! TF.GenerationSoftware,Kicad,Pcbnew,(6.0.4)
; #@! TF.FileFunction,Plated,1,2,PTH
FMAT,2
METRIC
; #@! TA.AperFunction,Plated,PTH,ViaDrill
T1C0.400
; #@! TA.AperFunction,Plated,PTH,ComponentDrill
T2C0.813
; #@! TA.AperFunction,Plated,PTH,ComponentDrill
T3C0.900
; #@! TA.AperFunction,Plated,PTH,ComponentDrill
T4C1.270
; #@! TA.AperFunction,Plated,PTH,ComponentDrill
T5C2.200
%
G90
G05
T1
X26.924Y-74.168
X29.464Y-74.93
X30.988Y-78.486
X52.324Y-63.5
X217.424Y-52.832
X221.488Y-83.312
X231.437Y-55.329
X233.68Y-58.42
X234.95Y-61.468
T2
X22.717Y-53.086
X22.717Y-55.626
X22.717Y-58.166
X22.717Y-60.706
X22.717Y-63.246
X22.717Y-65.786
X22.717Y-68.326
X22.717Y-70.866
X22.717Y-73.406
X22.717Y-75.946
X22.717Y-78.486
X22.717Y-81.026
X24.638Y-50.8
X36.068Y-50.8
X37.937Y-53.086
X37.937Y-55.626
X37.937Y-58.166
X37.937Y-60.706
X37.937Y-63.246
X37.937Y-65.786
X37.937Y-68.326
X37.937Y-70.866
X37.937Y-73.406
X37.937Y-75.946
X37.937Y-78.486
X37.937Y-81.026
X222.569Y-53.086
X222.569Y-55.626
X222.569Y-58.166
X222.569Y-60.706
X222.569Y-63.246
X222.569Y-65.786
X222.569Y-68.326
X222.569Y-70.866
X222.569Y-73.406
X222.569Y-75.946
X222.569Y-78.486
X222.569Y-81.026
X224.282Y-50.8
X235.966Y-50.8
X237.789Y-53.086
X237.789Y-55.626
X237.789Y-58.166
X237.789Y-60.706
X237.789Y-63.246
X237.789Y-65.786
X237.789Y-68.326
X237.789Y-70.866
X237.789Y-73.406
X237.789Y-75.946
X237.789Y-78.486
X237.789Y-81.026
T4
X35.268Y-92.972
X40.648Y-92.291
X43.686Y-42.182
X43.686Y-59.172
X43.686Y-76.19
X48.686Y-44.282
X48.686Y-61.272
X48.686Y-78.29
X55.251Y-84.383
X60.624Y-85.117
X61.7Y-39.682
X61.7Y-56.632
X61.7Y-73.65
X66.7Y-41.782
X66.7Y-58.732
X66.7Y-75.75
X79.688Y-34.182
X79.688Y-51.298
X79.688Y-68.316
X84.688Y-36.282
X84.688Y-53.398
X84.688Y-70.416
X97.714Y-41.182
X97.714Y-58.156
X97.714Y-75.174
X102.714Y-43.282
X102.714Y-60.256
X102.714Y-77.274
X115.732Y-53.182
X115.732Y-70.182
X115.732Y-87.182
X120.732Y-55.282
X120.732Y-72.282
X120.732Y-89.282
X134.856Y-53.182
X134.856Y-70.182
X134.856Y-87.182
X139.856Y-55.282
X139.856Y-72.282
X139.856Y-89.282
X152.856Y-41.182
X152.856Y-58.156
X152.856Y-75.174
X157.856Y-43.282
X157.856Y-60.256
X157.856Y-77.274
X170.856Y-34.182
X170.856Y-51.298
X170.856Y-68.316
X175.856Y-36.282
X175.856Y-53.398
X175.856Y-70.416
X188.856Y-39.682
X188.856Y-56.632
X188.856Y-73.65
X193.856Y-41.782
X193.856Y-58.732
X193.856Y-75.75
X205.353Y-84.383
X206.836Y-59.172
X206.836Y-76.19
X206.856Y-42.182
X209.639Y-87.706
X211.836Y-61.272
X211.836Y-78.29
X211.856Y-44.282
X225.336Y-92.972
X228.616Y-97.291
T5
X56.642Y-46.282
X75.692Y-27.232
X75.692Y-65.332
X94.742Y-46.282
X166.306Y-46.282
X185.356Y-27.232
X185.356Y-65.332
X204.406Y-46.282
T3
X26.876Y-83.752G85X27.276Y-83.752
G05
X29.876Y-83.752G85X30.276Y-83.752
G05
X33.876Y-83.752G85X34.276Y-83.752
G05
X34.976Y-88.352G85X35.376Y-88.352
G05
X225.374Y-83.752G85X224.974Y-83.752
G05
X226.474Y-88.352G85X226.074Y-88.352
G05
X230.474Y-88.352G85X230.074Y-88.352
G05
X233.474Y-88.352G85X233.074Y-88.352
G05
T0
M30
